G04 EAGLE Gerber RS-274X export*
G75*
%MOMM*%
%FSLAX34Y34*%
%LPD*%
%IN*%
%IPPOS*%
%AMOC8*
5,1,8,0,0,1.08239X$1,22.5*%
G01*
%ADD10C,0.254000*%


D10*
X0Y0D02*
X780000Y0D01*
X780000Y480000D01*
X0Y480000D01*
X0Y0D01*
X750491Y17500D02*
X751470Y17577D01*
X752441Y17731D01*
X753396Y17960D01*
X754330Y18264D01*
X755237Y18639D01*
X756112Y19085D01*
X756950Y19599D01*
X757745Y20176D01*
X758492Y20814D01*
X759186Y21508D01*
X759824Y22255D01*
X760401Y23050D01*
X760915Y23888D01*
X761361Y24763D01*
X761736Y25670D01*
X762040Y26604D01*
X762269Y27560D01*
X762423Y28530D01*
X762500Y29509D01*
X762500Y30491D01*
X762423Y31470D01*
X762269Y32441D01*
X762040Y33396D01*
X761736Y34330D01*
X761361Y35237D01*
X760915Y36112D01*
X760401Y36950D01*
X759824Y37745D01*
X759186Y38492D01*
X758492Y39186D01*
X757745Y39824D01*
X756950Y40401D01*
X756112Y40915D01*
X755237Y41361D01*
X754330Y41736D01*
X753396Y42040D01*
X752441Y42269D01*
X751470Y42423D01*
X750491Y42500D01*
X749509Y42500D01*
X748530Y42423D01*
X747560Y42269D01*
X746604Y42040D01*
X745670Y41736D01*
X744763Y41361D01*
X743888Y40915D01*
X743050Y40401D01*
X742255Y39824D01*
X741508Y39186D01*
X740814Y38492D01*
X740176Y37745D01*
X739599Y36950D01*
X739085Y36112D01*
X738639Y35237D01*
X738264Y34330D01*
X737960Y33396D01*
X737731Y32441D01*
X737577Y31470D01*
X737500Y30491D01*
X737500Y29509D01*
X737577Y28530D01*
X737731Y27560D01*
X737960Y26604D01*
X738264Y25670D01*
X738639Y24763D01*
X739085Y23888D01*
X739599Y23050D01*
X740176Y22255D01*
X740814Y21508D01*
X741508Y20814D01*
X742255Y20176D01*
X743050Y19599D01*
X743888Y19085D01*
X744763Y18639D01*
X745670Y18264D01*
X746604Y17960D01*
X747560Y17731D01*
X748530Y17577D01*
X749509Y17500D01*
X750491Y17500D01*
X750491Y437500D02*
X751470Y437577D01*
X752441Y437731D01*
X753396Y437960D01*
X754330Y438264D01*
X755237Y438639D01*
X756112Y439085D01*
X756950Y439599D01*
X757745Y440176D01*
X758492Y440814D01*
X759186Y441508D01*
X759824Y442255D01*
X760401Y443050D01*
X760915Y443888D01*
X761361Y444763D01*
X761736Y445670D01*
X762040Y446604D01*
X762269Y447560D01*
X762423Y448530D01*
X762500Y449509D01*
X762500Y450491D01*
X762423Y451470D01*
X762269Y452441D01*
X762040Y453396D01*
X761736Y454330D01*
X761361Y455237D01*
X760915Y456112D01*
X760401Y456950D01*
X759824Y457745D01*
X759186Y458492D01*
X758492Y459186D01*
X757745Y459824D01*
X756950Y460401D01*
X756112Y460915D01*
X755237Y461361D01*
X754330Y461736D01*
X753396Y462040D01*
X752441Y462269D01*
X751470Y462423D01*
X750491Y462500D01*
X749509Y462500D01*
X748530Y462423D01*
X747560Y462269D01*
X746604Y462040D01*
X745670Y461736D01*
X744763Y461361D01*
X743888Y460915D01*
X743050Y460401D01*
X742255Y459824D01*
X741508Y459186D01*
X740814Y458492D01*
X740176Y457745D01*
X739599Y456950D01*
X739085Y456112D01*
X738639Y455237D01*
X738264Y454330D01*
X737960Y453396D01*
X737731Y452441D01*
X737577Y451470D01*
X737500Y450491D01*
X737500Y449509D01*
X737577Y448530D01*
X737731Y447560D01*
X737960Y446604D01*
X738264Y445670D01*
X738639Y444763D01*
X739085Y443888D01*
X739599Y443050D01*
X740176Y442255D01*
X740814Y441508D01*
X741508Y440814D01*
X742255Y440176D01*
X743050Y439599D01*
X743888Y439085D01*
X744763Y438639D01*
X745670Y438264D01*
X746604Y437960D01*
X747560Y437731D01*
X748530Y437577D01*
X749509Y437500D01*
X750491Y437500D01*
X30491Y17500D02*
X31470Y17577D01*
X32441Y17731D01*
X33396Y17960D01*
X34330Y18264D01*
X35237Y18639D01*
X36112Y19085D01*
X36950Y19599D01*
X37745Y20176D01*
X38492Y20814D01*
X39186Y21508D01*
X39824Y22255D01*
X40401Y23050D01*
X40915Y23888D01*
X41361Y24763D01*
X41736Y25670D01*
X42040Y26604D01*
X42269Y27560D01*
X42423Y28530D01*
X42500Y29509D01*
X42500Y30491D01*
X42423Y31470D01*
X42269Y32441D01*
X42040Y33396D01*
X41736Y34330D01*
X41361Y35237D01*
X40915Y36112D01*
X40401Y36950D01*
X39824Y37745D01*
X39186Y38492D01*
X38492Y39186D01*
X37745Y39824D01*
X36950Y40401D01*
X36112Y40915D01*
X35237Y41361D01*
X34330Y41736D01*
X33396Y42040D01*
X32441Y42269D01*
X31470Y42423D01*
X30491Y42500D01*
X29509Y42500D01*
X28530Y42423D01*
X27560Y42269D01*
X26604Y42040D01*
X25670Y41736D01*
X24763Y41361D01*
X23888Y40915D01*
X23050Y40401D01*
X22255Y39824D01*
X21508Y39186D01*
X20814Y38492D01*
X20176Y37745D01*
X19599Y36950D01*
X19085Y36112D01*
X18639Y35237D01*
X18264Y34330D01*
X17960Y33396D01*
X17731Y32441D01*
X17577Y31470D01*
X17500Y30491D01*
X17500Y29509D01*
X17577Y28530D01*
X17731Y27560D01*
X17960Y26604D01*
X18264Y25670D01*
X18639Y24763D01*
X19085Y23888D01*
X19599Y23050D01*
X20176Y22255D01*
X20814Y21508D01*
X21508Y20814D01*
X22255Y20176D01*
X23050Y19599D01*
X23888Y19085D01*
X24763Y18639D01*
X25670Y18264D01*
X26604Y17960D01*
X27560Y17731D01*
X28530Y17577D01*
X29509Y17500D01*
X30491Y17500D01*
X30491Y437500D02*
X31470Y437577D01*
X32441Y437731D01*
X33396Y437960D01*
X34330Y438264D01*
X35237Y438639D01*
X36112Y439085D01*
X36950Y439599D01*
X37745Y440176D01*
X38492Y440814D01*
X39186Y441508D01*
X39824Y442255D01*
X40401Y443050D01*
X40915Y443888D01*
X41361Y444763D01*
X41736Y445670D01*
X42040Y446604D01*
X42269Y447560D01*
X42423Y448530D01*
X42500Y449509D01*
X42500Y450491D01*
X42423Y451470D01*
X42269Y452441D01*
X42040Y453396D01*
X41736Y454330D01*
X41361Y455237D01*
X40915Y456112D01*
X40401Y456950D01*
X39824Y457745D01*
X39186Y458492D01*
X38492Y459186D01*
X37745Y459824D01*
X36950Y460401D01*
X36112Y460915D01*
X35237Y461361D01*
X34330Y461736D01*
X33396Y462040D01*
X32441Y462269D01*
X31470Y462423D01*
X30491Y462500D01*
X29509Y462500D01*
X28530Y462423D01*
X27560Y462269D01*
X26604Y462040D01*
X25670Y461736D01*
X24763Y461361D01*
X23888Y460915D01*
X23050Y460401D01*
X22255Y459824D01*
X21508Y459186D01*
X20814Y458492D01*
X20176Y457745D01*
X19599Y456950D01*
X19085Y456112D01*
X18639Y455237D01*
X18264Y454330D01*
X17960Y453396D01*
X17731Y452441D01*
X17577Y451470D01*
X17500Y450491D01*
X17500Y449509D01*
X17577Y448530D01*
X17731Y447560D01*
X17960Y446604D01*
X18264Y445670D01*
X18639Y444763D01*
X19085Y443888D01*
X19599Y443050D01*
X20176Y442255D01*
X20814Y441508D01*
X21508Y440814D01*
X22255Y440176D01*
X23050Y439599D01*
X23888Y439085D01*
X24763Y438639D01*
X25670Y438264D01*
X26604Y437960D01*
X27560Y437731D01*
X28530Y437577D01*
X29509Y437500D01*
X30491Y437500D01*
M02*
