G04 EAGLE Gerber RS-274X export*
G75*
%MOMM*%
%FSLAX34Y34*%
%LPD*%
%INSilkscreen Bottom*%
%IPPOS*%
%AMOC8*
5,1,8,0,0,1.08239X$1,22.5*%
G01*
%ADD10C,0.203200*%
%ADD11C,0.076200*%
%ADD12C,0.101600*%
%ADD13C,0.152400*%
%ADD14R,13.500000X4.750000*%
%ADD15R,0.425000X0.325000*%
%ADD16R,0.350000X0.350000*%
%ADD17R,4.000000X0.500000*%
%ADD18C,0.127000*%


D10*
X678434Y43454D02*
X678434Y20066D01*
X666740Y20066D01*
X662842Y23964D01*
X662842Y39556D01*
X666740Y43454D01*
X678434Y43454D01*
X643352Y43454D02*
X639454Y39556D01*
X643352Y43454D02*
X651148Y43454D01*
X655046Y39556D01*
X655046Y23964D01*
X651148Y20066D01*
X643352Y20066D01*
X639454Y23964D01*
X619964Y43454D02*
X616066Y39556D01*
X619964Y43454D02*
X627760Y43454D01*
X631658Y39556D01*
X631658Y35658D01*
X627760Y31760D01*
X619964Y31760D01*
X616066Y27862D01*
X616066Y23964D01*
X619964Y20066D01*
X627760Y20066D01*
X631658Y23964D01*
X573188Y43454D02*
X569290Y39556D01*
X573188Y43454D02*
X580984Y43454D01*
X584882Y39556D01*
X584882Y23964D01*
X580984Y20066D01*
X573188Y20066D01*
X569290Y23964D01*
X569290Y31760D01*
X577086Y31760D01*
X561494Y43454D02*
X545902Y43454D01*
X561494Y43454D02*
X561494Y20066D01*
X545902Y20066D01*
X553698Y31760D02*
X561494Y31760D01*
X538106Y20066D02*
X538106Y43454D01*
X522514Y20066D01*
X522514Y43454D01*
X514718Y43454D02*
X499126Y43454D01*
X514718Y43454D02*
X514718Y20066D01*
X499126Y20066D01*
X506922Y31760D02*
X514718Y31760D01*
X491330Y20066D02*
X491330Y43454D01*
X479636Y43454D01*
X475738Y39556D01*
X475738Y31760D01*
X479636Y27862D01*
X491330Y27862D01*
X483534Y27862D02*
X475738Y20066D01*
X467942Y20066D02*
X467942Y35658D01*
X460146Y43454D01*
X452350Y35658D01*
X452350Y20066D01*
X452350Y31760D02*
X467942Y31760D01*
X444554Y43454D02*
X444554Y20066D01*
X428962Y20066D01*
X386084Y43454D02*
X382186Y39556D01*
X386084Y43454D02*
X393880Y43454D01*
X397778Y39556D01*
X397778Y35658D01*
X393880Y31760D01*
X386084Y31760D01*
X382186Y27862D01*
X382186Y23964D01*
X386084Y20066D01*
X393880Y20066D01*
X397778Y23964D01*
X374390Y20066D02*
X374390Y43454D01*
X366594Y27862D02*
X374390Y20066D01*
X366594Y27862D02*
X358798Y20066D01*
X358798Y43454D01*
X351002Y20066D02*
X343206Y20066D01*
X347104Y20066D02*
X347104Y43454D01*
X351002Y43454D02*
X343206Y43454D01*
X327615Y43454D02*
X327615Y20066D01*
X335410Y43454D02*
X319819Y43454D01*
X300329Y43454D02*
X296431Y39556D01*
X300329Y43454D02*
X308125Y43454D01*
X312023Y39556D01*
X312023Y23964D01*
X308125Y20066D01*
X300329Y20066D01*
X296431Y23964D01*
X288635Y20066D02*
X288635Y43454D01*
X288635Y31760D02*
X273043Y31760D01*
X273043Y43454D02*
X273043Y20066D01*
X241859Y20066D02*
X241859Y43454D01*
X230165Y43454D01*
X226267Y39556D01*
X226267Y35658D01*
X230165Y31760D01*
X226267Y27862D01*
X226267Y23964D01*
X230165Y20066D01*
X241859Y20066D01*
X241859Y31760D02*
X230165Y31760D01*
X214573Y43454D02*
X206777Y43454D01*
X214573Y43454D02*
X218471Y39556D01*
X218471Y23964D01*
X214573Y20066D01*
X206777Y20066D01*
X202879Y23964D01*
X202879Y39556D01*
X206777Y43454D01*
X195083Y35658D02*
X195083Y20066D01*
X195083Y35658D02*
X187287Y43454D01*
X179491Y35658D01*
X179491Y20066D01*
X179491Y31760D02*
X195083Y31760D01*
X171695Y20066D02*
X171695Y43454D01*
X160001Y43454D01*
X156103Y39556D01*
X156103Y31760D01*
X160001Y27862D01*
X171695Y27862D01*
X163899Y27862D02*
X156103Y20066D01*
X148307Y20066D02*
X148307Y43454D01*
X148307Y20066D02*
X136613Y20066D01*
X132715Y23964D01*
X132715Y39556D01*
X136613Y43454D01*
X148307Y43454D01*
X101531Y43454D02*
X101531Y27862D01*
X93735Y20066D01*
X85939Y27862D01*
X85939Y43454D01*
X70347Y39556D02*
X62551Y43454D01*
X70347Y39556D02*
X78143Y31760D01*
X78143Y23964D01*
X74245Y20066D01*
X66449Y20066D01*
X62551Y23964D01*
X62551Y27862D01*
X66449Y31760D01*
X78143Y31760D01*
D11*
X402971Y197910D02*
X409242Y197910D01*
X412377Y201046D01*
X409242Y204181D01*
X402971Y204181D01*
X407674Y204181D02*
X407674Y197910D01*
X412377Y207265D02*
X402971Y207265D01*
X402971Y211968D01*
X404539Y213536D01*
X410809Y213536D01*
X412377Y211968D01*
X412377Y207265D01*
X412377Y216621D02*
X402971Y216621D01*
X402971Y221324D01*
X404539Y222891D01*
X410809Y222891D01*
X412377Y221324D01*
X412377Y216621D01*
X412377Y225976D02*
X402971Y225976D01*
X412377Y225976D02*
X412377Y230679D01*
X410809Y232246D01*
X407674Y232246D01*
X406106Y230679D01*
X406106Y225976D01*
X406106Y229111D02*
X402971Y232246D01*
X463931Y190881D02*
X468846Y190881D01*
X471303Y193338D01*
X468846Y195796D01*
X463931Y195796D01*
X467617Y195796D02*
X467617Y190881D01*
X465160Y198365D02*
X470075Y198365D01*
X471303Y199594D01*
X471303Y202051D01*
X470075Y203280D01*
X465160Y203280D01*
X463931Y202051D01*
X463931Y199594D01*
X465160Y198365D01*
X470075Y203280D01*
X468846Y216281D02*
X463931Y216281D01*
X468846Y216281D02*
X471303Y218738D01*
X468846Y221196D01*
X463931Y221196D01*
X467617Y221196D02*
X467617Y216281D01*
X468846Y223765D02*
X471303Y226223D01*
X463931Y226223D01*
X463931Y228680D02*
X463931Y223765D01*
X463931Y248031D02*
X468846Y248031D01*
X471303Y250488D01*
X468846Y252946D01*
X463931Y252946D01*
X467617Y252946D02*
X467617Y248031D01*
X463931Y255515D02*
X463931Y260430D01*
X463931Y255515D02*
X468846Y260430D01*
X470075Y260430D01*
X471303Y259201D01*
X471303Y256744D01*
X470075Y255515D01*
D12*
X647192Y69352D02*
X647192Y57658D01*
X639396Y57658D01*
X635498Y69352D02*
X627702Y69352D01*
X635498Y69352D02*
X635498Y57658D01*
X627702Y57658D01*
X631600Y63505D02*
X635498Y63505D01*
X623804Y69352D02*
X623804Y57658D01*
X617957Y57658D01*
X616008Y59607D01*
X616008Y67403D01*
X617957Y69352D01*
X623804Y69352D01*
X612110Y57658D02*
X606263Y57658D01*
X604314Y59607D01*
X606263Y61556D01*
X610161Y61556D01*
X612110Y63505D01*
X610161Y65454D01*
X604314Y65454D01*
X582875Y69352D02*
X580926Y67403D01*
X582875Y69352D02*
X586773Y69352D01*
X588722Y67403D01*
X588722Y59607D01*
X586773Y57658D01*
X582875Y57658D01*
X580926Y59607D01*
X575079Y69352D02*
X571181Y69352D01*
X575079Y69352D02*
X577028Y67403D01*
X577028Y59607D01*
X575079Y57658D01*
X571181Y57658D01*
X569232Y59607D01*
X569232Y67403D01*
X571181Y69352D01*
X565334Y69352D02*
X565334Y57658D01*
X561436Y65454D02*
X565334Y69352D01*
X561436Y65454D02*
X557538Y69352D01*
X557538Y57658D01*
X553640Y57658D02*
X553640Y69352D01*
X549742Y65454D01*
X545844Y69352D01*
X545844Y57658D01*
X539997Y69352D02*
X536099Y69352D01*
X539997Y69352D02*
X541946Y67403D01*
X541946Y59607D01*
X539997Y57658D01*
X536099Y57658D01*
X534150Y59607D01*
X534150Y67403D01*
X536099Y69352D01*
X530252Y69352D02*
X530252Y57658D01*
X522456Y57658D02*
X530252Y69352D01*
X522456Y69352D02*
X522456Y57658D01*
X506864Y57658D02*
X506864Y65454D01*
X502966Y69352D01*
X499068Y65454D01*
X499068Y57658D01*
X499068Y63505D02*
X506864Y63505D01*
X495170Y57658D02*
X495170Y69352D01*
X487374Y57658D01*
X487374Y69352D01*
X481527Y69352D02*
X477629Y69352D01*
X481527Y69352D02*
X483476Y67403D01*
X483476Y59607D01*
X481527Y57658D01*
X477629Y57658D01*
X475680Y59607D01*
X475680Y67403D01*
X477629Y69352D01*
X471782Y69352D02*
X471782Y57658D01*
X465936Y57658D01*
X463987Y59607D01*
X463987Y67403D01*
X465936Y69352D01*
X471782Y69352D01*
X460089Y69352D02*
X452293Y69352D01*
X460089Y69352D02*
X460089Y57658D01*
X452293Y57658D01*
X456191Y63505D02*
X460089Y63505D01*
D11*
X640969Y209931D02*
X640969Y217303D01*
X640969Y212388D02*
X636054Y217303D01*
X639740Y213617D02*
X636054Y209931D01*
D13*
X539238Y390762D02*
X533815Y390762D01*
X536526Y390762D02*
X536526Y407032D01*
X533815Y407032D02*
X539238Y407032D01*
X528324Y390762D02*
X517477Y390762D01*
X528324Y390762D02*
X517477Y401609D01*
X517477Y404320D01*
X520189Y407032D01*
X525612Y407032D01*
X528324Y404320D01*
X503817Y407032D02*
X501105Y404320D01*
X503817Y407032D02*
X509240Y407032D01*
X511952Y404320D01*
X511952Y393474D01*
X509240Y390762D01*
X503817Y390762D01*
X501105Y393474D01*
D14*
X340000Y441250D03*
D11*
X424753Y414197D02*
X424753Y411739D01*
X424753Y412968D02*
X432125Y412968D01*
X432125Y411739D02*
X432125Y414197D01*
X424753Y416729D02*
X424753Y421644D01*
X424753Y416729D02*
X429668Y421644D01*
X430897Y421644D01*
X432125Y420415D01*
X432125Y417957D01*
X430897Y416729D01*
X432125Y427899D02*
X430897Y429128D01*
X432125Y427899D02*
X432125Y425442D01*
X430897Y424213D01*
X425982Y424213D01*
X424753Y425442D01*
X424753Y427899D01*
X425982Y429128D01*
X417476Y411739D02*
X412561Y411739D01*
X417476Y411739D02*
X419933Y414197D01*
X417476Y416654D01*
X412561Y416654D01*
X416247Y416654D02*
X416247Y411739D01*
X419933Y424138D02*
X412561Y424138D01*
X412561Y420452D01*
X413790Y419223D01*
X416247Y419223D01*
X417476Y420452D01*
X417476Y424138D01*
X419933Y431622D02*
X412561Y431622D01*
X412561Y427936D01*
X413790Y426708D01*
X416247Y426708D01*
X417476Y427936D01*
X417476Y431622D01*
X417476Y434192D02*
X412561Y434192D01*
X415018Y434192D02*
X417476Y436649D01*
X417476Y437878D01*
X412561Y441657D02*
X412561Y444115D01*
X412561Y441657D02*
X413790Y440429D01*
X416247Y440429D01*
X417476Y441657D01*
X417476Y444115D01*
X416247Y445343D01*
X415018Y445343D01*
X415018Y440429D01*
X412561Y447913D02*
X412561Y451599D01*
X413790Y452828D01*
X415018Y451599D01*
X415018Y449141D01*
X416247Y447913D01*
X417476Y449141D01*
X417476Y452828D01*
X412561Y455397D02*
X412561Y459083D01*
X413790Y460312D01*
X415018Y459083D01*
X415018Y456626D01*
X416247Y455397D01*
X417476Y456626D01*
X417476Y460312D01*
D13*
X424180Y207010D02*
X452120Y207010D01*
X454660Y189230D02*
X454658Y189130D01*
X454652Y189031D01*
X454642Y188931D01*
X454629Y188833D01*
X454611Y188734D01*
X454590Y188637D01*
X454565Y188541D01*
X454536Y188445D01*
X454503Y188351D01*
X454467Y188258D01*
X454427Y188167D01*
X454383Y188077D01*
X454336Y187989D01*
X454286Y187903D01*
X454232Y187819D01*
X454175Y187737D01*
X454115Y187658D01*
X454051Y187580D01*
X453985Y187506D01*
X453916Y187434D01*
X453844Y187365D01*
X453770Y187299D01*
X453692Y187235D01*
X453613Y187175D01*
X453531Y187118D01*
X453447Y187064D01*
X453361Y187014D01*
X453273Y186967D01*
X453183Y186923D01*
X453092Y186883D01*
X452999Y186847D01*
X452905Y186814D01*
X452809Y186785D01*
X452713Y186760D01*
X452616Y186739D01*
X452517Y186721D01*
X452419Y186708D01*
X452319Y186698D01*
X452220Y186692D01*
X452120Y186690D01*
X424180Y186690D02*
X424080Y186692D01*
X423981Y186698D01*
X423881Y186708D01*
X423783Y186721D01*
X423684Y186739D01*
X423587Y186760D01*
X423491Y186785D01*
X423395Y186814D01*
X423301Y186847D01*
X423208Y186883D01*
X423117Y186923D01*
X423027Y186967D01*
X422939Y187014D01*
X422853Y187064D01*
X422769Y187118D01*
X422687Y187175D01*
X422608Y187235D01*
X422530Y187299D01*
X422456Y187365D01*
X422384Y187434D01*
X422315Y187506D01*
X422249Y187580D01*
X422185Y187658D01*
X422125Y187737D01*
X422068Y187819D01*
X422014Y187903D01*
X421964Y187989D01*
X421917Y188077D01*
X421873Y188167D01*
X421833Y188258D01*
X421797Y188351D01*
X421764Y188445D01*
X421735Y188541D01*
X421710Y188637D01*
X421689Y188734D01*
X421671Y188833D01*
X421658Y188931D01*
X421648Y189031D01*
X421642Y189130D01*
X421640Y189230D01*
X421640Y204470D02*
X421642Y204570D01*
X421648Y204669D01*
X421658Y204769D01*
X421671Y204867D01*
X421689Y204966D01*
X421710Y205063D01*
X421735Y205159D01*
X421764Y205255D01*
X421797Y205349D01*
X421833Y205442D01*
X421873Y205533D01*
X421917Y205623D01*
X421964Y205711D01*
X422014Y205797D01*
X422068Y205881D01*
X422125Y205963D01*
X422185Y206042D01*
X422249Y206120D01*
X422315Y206194D01*
X422384Y206266D01*
X422456Y206335D01*
X422530Y206401D01*
X422608Y206465D01*
X422687Y206525D01*
X422769Y206582D01*
X422853Y206636D01*
X422939Y206686D01*
X423027Y206733D01*
X423117Y206777D01*
X423208Y206817D01*
X423301Y206853D01*
X423395Y206886D01*
X423491Y206915D01*
X423587Y206940D01*
X423684Y206961D01*
X423783Y206979D01*
X423881Y206992D01*
X423981Y207002D01*
X424080Y207008D01*
X424180Y207010D01*
X452120Y207010D02*
X452220Y207008D01*
X452319Y207002D01*
X452419Y206992D01*
X452517Y206979D01*
X452616Y206961D01*
X452713Y206940D01*
X452809Y206915D01*
X452905Y206886D01*
X452999Y206853D01*
X453092Y206817D01*
X453183Y206777D01*
X453273Y206733D01*
X453361Y206686D01*
X453447Y206636D01*
X453531Y206582D01*
X453613Y206525D01*
X453692Y206465D01*
X453770Y206401D01*
X453844Y206335D01*
X453916Y206266D01*
X453985Y206194D01*
X454051Y206120D01*
X454115Y206042D01*
X454175Y205963D01*
X454232Y205881D01*
X454286Y205797D01*
X454336Y205711D01*
X454383Y205623D01*
X454427Y205533D01*
X454467Y205442D01*
X454503Y205349D01*
X454536Y205255D01*
X454565Y205159D01*
X454590Y205063D01*
X454611Y204966D01*
X454629Y204867D01*
X454642Y204769D01*
X454652Y204669D01*
X454658Y204570D01*
X454660Y204470D01*
X454660Y189230D01*
X421640Y189230D02*
X421640Y204470D01*
X424180Y186690D02*
X452120Y186690D01*
X452120Y232410D02*
X424180Y232410D01*
X452120Y212090D02*
X452220Y212092D01*
X452319Y212098D01*
X452419Y212108D01*
X452517Y212121D01*
X452616Y212139D01*
X452713Y212160D01*
X452809Y212185D01*
X452905Y212214D01*
X452999Y212247D01*
X453092Y212283D01*
X453183Y212323D01*
X453273Y212367D01*
X453361Y212414D01*
X453447Y212464D01*
X453531Y212518D01*
X453613Y212575D01*
X453692Y212635D01*
X453770Y212699D01*
X453844Y212765D01*
X453916Y212834D01*
X453985Y212906D01*
X454051Y212980D01*
X454115Y213058D01*
X454175Y213137D01*
X454232Y213219D01*
X454286Y213303D01*
X454336Y213389D01*
X454383Y213477D01*
X454427Y213567D01*
X454467Y213658D01*
X454503Y213751D01*
X454536Y213845D01*
X454565Y213941D01*
X454590Y214037D01*
X454611Y214134D01*
X454629Y214233D01*
X454642Y214331D01*
X454652Y214431D01*
X454658Y214530D01*
X454660Y214630D01*
X424180Y212090D02*
X424080Y212092D01*
X423981Y212098D01*
X423881Y212108D01*
X423783Y212121D01*
X423684Y212139D01*
X423587Y212160D01*
X423491Y212185D01*
X423395Y212214D01*
X423301Y212247D01*
X423208Y212283D01*
X423117Y212323D01*
X423027Y212367D01*
X422939Y212414D01*
X422853Y212464D01*
X422769Y212518D01*
X422687Y212575D01*
X422608Y212635D01*
X422530Y212699D01*
X422456Y212765D01*
X422384Y212834D01*
X422315Y212906D01*
X422249Y212980D01*
X422185Y213058D01*
X422125Y213137D01*
X422068Y213219D01*
X422014Y213303D01*
X421964Y213389D01*
X421917Y213477D01*
X421873Y213567D01*
X421833Y213658D01*
X421797Y213751D01*
X421764Y213845D01*
X421735Y213941D01*
X421710Y214037D01*
X421689Y214134D01*
X421671Y214233D01*
X421658Y214331D01*
X421648Y214431D01*
X421642Y214530D01*
X421640Y214630D01*
X421640Y229870D02*
X421642Y229970D01*
X421648Y230069D01*
X421658Y230169D01*
X421671Y230267D01*
X421689Y230366D01*
X421710Y230463D01*
X421735Y230559D01*
X421764Y230655D01*
X421797Y230749D01*
X421833Y230842D01*
X421873Y230933D01*
X421917Y231023D01*
X421964Y231111D01*
X422014Y231197D01*
X422068Y231281D01*
X422125Y231363D01*
X422185Y231442D01*
X422249Y231520D01*
X422315Y231594D01*
X422384Y231666D01*
X422456Y231735D01*
X422530Y231801D01*
X422608Y231865D01*
X422687Y231925D01*
X422769Y231982D01*
X422853Y232036D01*
X422939Y232086D01*
X423027Y232133D01*
X423117Y232177D01*
X423208Y232217D01*
X423301Y232253D01*
X423395Y232286D01*
X423491Y232315D01*
X423587Y232340D01*
X423684Y232361D01*
X423783Y232379D01*
X423881Y232392D01*
X423981Y232402D01*
X424080Y232408D01*
X424180Y232410D01*
X452120Y232410D02*
X452220Y232408D01*
X452319Y232402D01*
X452419Y232392D01*
X452517Y232379D01*
X452616Y232361D01*
X452713Y232340D01*
X452809Y232315D01*
X452905Y232286D01*
X452999Y232253D01*
X453092Y232217D01*
X453183Y232177D01*
X453273Y232133D01*
X453361Y232086D01*
X453447Y232036D01*
X453531Y231982D01*
X453613Y231925D01*
X453692Y231865D01*
X453770Y231801D01*
X453844Y231735D01*
X453916Y231666D01*
X453985Y231594D01*
X454051Y231520D01*
X454115Y231442D01*
X454175Y231363D01*
X454232Y231281D01*
X454286Y231197D01*
X454336Y231111D01*
X454383Y231023D01*
X454427Y230933D01*
X454467Y230842D01*
X454503Y230749D01*
X454536Y230655D01*
X454565Y230559D01*
X454590Y230463D01*
X454611Y230366D01*
X454629Y230267D01*
X454642Y230169D01*
X454652Y230069D01*
X454658Y229970D01*
X454660Y229870D01*
X454660Y214630D01*
X421640Y214630D02*
X421640Y229870D01*
X424180Y212090D02*
X452120Y212090D01*
X452120Y257810D02*
X424180Y257810D01*
X452120Y237490D02*
X452220Y237492D01*
X452319Y237498D01*
X452419Y237508D01*
X452517Y237521D01*
X452616Y237539D01*
X452713Y237560D01*
X452809Y237585D01*
X452905Y237614D01*
X452999Y237647D01*
X453092Y237683D01*
X453183Y237723D01*
X453273Y237767D01*
X453361Y237814D01*
X453447Y237864D01*
X453531Y237918D01*
X453613Y237975D01*
X453692Y238035D01*
X453770Y238099D01*
X453844Y238165D01*
X453916Y238234D01*
X453985Y238306D01*
X454051Y238380D01*
X454115Y238458D01*
X454175Y238537D01*
X454232Y238619D01*
X454286Y238703D01*
X454336Y238789D01*
X454383Y238877D01*
X454427Y238967D01*
X454467Y239058D01*
X454503Y239151D01*
X454536Y239245D01*
X454565Y239341D01*
X454590Y239437D01*
X454611Y239534D01*
X454629Y239633D01*
X454642Y239731D01*
X454652Y239831D01*
X454658Y239930D01*
X454660Y240030D01*
X424180Y237490D02*
X424080Y237492D01*
X423981Y237498D01*
X423881Y237508D01*
X423783Y237521D01*
X423684Y237539D01*
X423587Y237560D01*
X423491Y237585D01*
X423395Y237614D01*
X423301Y237647D01*
X423208Y237683D01*
X423117Y237723D01*
X423027Y237767D01*
X422939Y237814D01*
X422853Y237864D01*
X422769Y237918D01*
X422687Y237975D01*
X422608Y238035D01*
X422530Y238099D01*
X422456Y238165D01*
X422384Y238234D01*
X422315Y238306D01*
X422249Y238380D01*
X422185Y238458D01*
X422125Y238537D01*
X422068Y238619D01*
X422014Y238703D01*
X421964Y238789D01*
X421917Y238877D01*
X421873Y238967D01*
X421833Y239058D01*
X421797Y239151D01*
X421764Y239245D01*
X421735Y239341D01*
X421710Y239437D01*
X421689Y239534D01*
X421671Y239633D01*
X421658Y239731D01*
X421648Y239831D01*
X421642Y239930D01*
X421640Y240030D01*
X421640Y255270D02*
X421642Y255370D01*
X421648Y255469D01*
X421658Y255569D01*
X421671Y255667D01*
X421689Y255766D01*
X421710Y255863D01*
X421735Y255959D01*
X421764Y256055D01*
X421797Y256149D01*
X421833Y256242D01*
X421873Y256333D01*
X421917Y256423D01*
X421964Y256511D01*
X422014Y256597D01*
X422068Y256681D01*
X422125Y256763D01*
X422185Y256842D01*
X422249Y256920D01*
X422315Y256994D01*
X422384Y257066D01*
X422456Y257135D01*
X422530Y257201D01*
X422608Y257265D01*
X422687Y257325D01*
X422769Y257382D01*
X422853Y257436D01*
X422939Y257486D01*
X423027Y257533D01*
X423117Y257577D01*
X423208Y257617D01*
X423301Y257653D01*
X423395Y257686D01*
X423491Y257715D01*
X423587Y257740D01*
X423684Y257761D01*
X423783Y257779D01*
X423881Y257792D01*
X423981Y257802D01*
X424080Y257808D01*
X424180Y257810D01*
X452120Y257810D02*
X452220Y257808D01*
X452319Y257802D01*
X452419Y257792D01*
X452517Y257779D01*
X452616Y257761D01*
X452713Y257740D01*
X452809Y257715D01*
X452905Y257686D01*
X452999Y257653D01*
X453092Y257617D01*
X453183Y257577D01*
X453273Y257533D01*
X453361Y257486D01*
X453447Y257436D01*
X453531Y257382D01*
X453613Y257325D01*
X453692Y257265D01*
X453770Y257201D01*
X453844Y257135D01*
X453916Y257066D01*
X453985Y256994D01*
X454051Y256920D01*
X454115Y256842D01*
X454175Y256763D01*
X454232Y256681D01*
X454286Y256597D01*
X454336Y256511D01*
X454383Y256423D01*
X454427Y256333D01*
X454467Y256242D01*
X454503Y256149D01*
X454536Y256055D01*
X454565Y255959D01*
X454590Y255863D01*
X454611Y255766D01*
X454629Y255667D01*
X454642Y255569D01*
X454652Y255469D01*
X454658Y255370D01*
X454660Y255270D01*
X454660Y240030D01*
X421640Y240030D02*
X421640Y255270D01*
X424180Y237490D02*
X452120Y237490D01*
D15*
X627925Y193150D03*
X627925Y206900D03*
D16*
X624050Y200025D03*
D12*
X644174Y225933D02*
X644174Y237627D01*
X644174Y225933D02*
X636378Y225933D01*
X632480Y237627D02*
X624684Y237627D01*
X632480Y237627D02*
X632480Y225933D01*
X624684Y225933D01*
X628582Y231780D02*
X632480Y231780D01*
X620786Y237627D02*
X620786Y225933D01*
X614939Y225933D01*
X612990Y227882D01*
X612990Y235678D01*
X614939Y237627D01*
X620786Y237627D01*
D13*
X720790Y30000D02*
X720799Y30717D01*
X720825Y31433D01*
X720869Y32149D01*
X720931Y32863D01*
X721010Y33576D01*
X721106Y34286D01*
X721220Y34994D01*
X721351Y35699D01*
X721500Y36400D01*
X721665Y37097D01*
X721848Y37791D01*
X722048Y38479D01*
X722264Y39163D01*
X722497Y39841D01*
X722747Y40513D01*
X723013Y41178D01*
X723296Y41837D01*
X723594Y42489D01*
X723909Y43133D01*
X724239Y43769D01*
X724585Y44398D01*
X724946Y45017D01*
X725322Y45627D01*
X725713Y46228D01*
X726118Y46819D01*
X726538Y47400D01*
X726972Y47971D01*
X727420Y48531D01*
X727882Y49079D01*
X728357Y49616D01*
X728845Y50141D01*
X729345Y50655D01*
X729859Y51155D01*
X730384Y51643D01*
X730921Y52118D01*
X731469Y52580D01*
X732029Y53028D01*
X732600Y53462D01*
X733181Y53882D01*
X733772Y54287D01*
X734373Y54678D01*
X734983Y55054D01*
X735602Y55415D01*
X736231Y55761D01*
X736867Y56091D01*
X737511Y56406D01*
X738163Y56704D01*
X738822Y56987D01*
X739487Y57253D01*
X740159Y57503D01*
X740837Y57736D01*
X741521Y57952D01*
X742209Y58152D01*
X742903Y58335D01*
X743600Y58500D01*
X744301Y58649D01*
X745006Y58780D01*
X745714Y58894D01*
X746424Y58990D01*
X747137Y59069D01*
X747851Y59131D01*
X748567Y59175D01*
X749283Y59201D01*
X750000Y59210D01*
X750717Y59201D01*
X751433Y59175D01*
X752149Y59131D01*
X752863Y59069D01*
X753576Y58990D01*
X754286Y58894D01*
X754994Y58780D01*
X755699Y58649D01*
X756400Y58500D01*
X757097Y58335D01*
X757791Y58152D01*
X758479Y57952D01*
X759163Y57736D01*
X759841Y57503D01*
X760513Y57253D01*
X761178Y56987D01*
X761837Y56704D01*
X762489Y56406D01*
X763133Y56091D01*
X763769Y55761D01*
X764398Y55415D01*
X765017Y55054D01*
X765627Y54678D01*
X766228Y54287D01*
X766819Y53882D01*
X767400Y53462D01*
X767971Y53028D01*
X768531Y52580D01*
X769079Y52118D01*
X769616Y51643D01*
X770141Y51155D01*
X770655Y50655D01*
X771155Y50141D01*
X771643Y49616D01*
X772118Y49079D01*
X772580Y48531D01*
X773028Y47971D01*
X773462Y47400D01*
X773882Y46819D01*
X774287Y46228D01*
X774678Y45627D01*
X775054Y45017D01*
X775415Y44398D01*
X775761Y43769D01*
X776091Y43133D01*
X776406Y42489D01*
X776704Y41837D01*
X776987Y41178D01*
X777253Y40513D01*
X777503Y39841D01*
X777736Y39163D01*
X777952Y38479D01*
X778152Y37791D01*
X778335Y37097D01*
X778500Y36400D01*
X778649Y35699D01*
X778780Y34994D01*
X778894Y34286D01*
X778990Y33576D01*
X779069Y32863D01*
X779131Y32149D01*
X779175Y31433D01*
X779201Y30717D01*
X779210Y30000D01*
X779201Y29283D01*
X779175Y28567D01*
X779131Y27851D01*
X779069Y27137D01*
X778990Y26424D01*
X778894Y25714D01*
X778780Y25006D01*
X778649Y24301D01*
X778500Y23600D01*
X778335Y22903D01*
X778152Y22209D01*
X777952Y21521D01*
X777736Y20837D01*
X777503Y20159D01*
X777253Y19487D01*
X776987Y18822D01*
X776704Y18163D01*
X776406Y17511D01*
X776091Y16867D01*
X775761Y16231D01*
X775415Y15602D01*
X775054Y14983D01*
X774678Y14373D01*
X774287Y13772D01*
X773882Y13181D01*
X773462Y12600D01*
X773028Y12029D01*
X772580Y11469D01*
X772118Y10921D01*
X771643Y10384D01*
X771155Y9859D01*
X770655Y9345D01*
X770141Y8845D01*
X769616Y8357D01*
X769079Y7882D01*
X768531Y7420D01*
X767971Y6972D01*
X767400Y6538D01*
X766819Y6118D01*
X766228Y5713D01*
X765627Y5322D01*
X765017Y4946D01*
X764398Y4585D01*
X763769Y4239D01*
X763133Y3909D01*
X762489Y3594D01*
X761837Y3296D01*
X761178Y3013D01*
X760513Y2747D01*
X759841Y2497D01*
X759163Y2264D01*
X758479Y2048D01*
X757791Y1848D01*
X757097Y1665D01*
X756400Y1500D01*
X755699Y1351D01*
X754994Y1220D01*
X754286Y1106D01*
X753576Y1010D01*
X752863Y931D01*
X752149Y869D01*
X751433Y825D01*
X750717Y799D01*
X750000Y790D01*
X749283Y799D01*
X748567Y825D01*
X747851Y869D01*
X747137Y931D01*
X746424Y1010D01*
X745714Y1106D01*
X745006Y1220D01*
X744301Y1351D01*
X743600Y1500D01*
X742903Y1665D01*
X742209Y1848D01*
X741521Y2048D01*
X740837Y2264D01*
X740159Y2497D01*
X739487Y2747D01*
X738822Y3013D01*
X738163Y3296D01*
X737511Y3594D01*
X736867Y3909D01*
X736231Y4239D01*
X735602Y4585D01*
X734983Y4946D01*
X734373Y5322D01*
X733772Y5713D01*
X733181Y6118D01*
X732600Y6538D01*
X732029Y6972D01*
X731469Y7420D01*
X730921Y7882D01*
X730384Y8357D01*
X729859Y8845D01*
X729345Y9345D01*
X728845Y9859D01*
X728357Y10384D01*
X727882Y10921D01*
X727420Y11469D01*
X726972Y12029D01*
X726538Y12600D01*
X726118Y13181D01*
X725713Y13772D01*
X725322Y14373D01*
X724946Y14983D01*
X724585Y15602D01*
X724239Y16231D01*
X723909Y16867D01*
X723594Y17511D01*
X723296Y18163D01*
X723013Y18822D01*
X722747Y19487D01*
X722497Y20159D01*
X722264Y20837D01*
X722048Y21521D01*
X721848Y22209D01*
X721665Y22903D01*
X721500Y23600D01*
X721351Y24301D01*
X721220Y25006D01*
X721106Y25714D01*
X721010Y26424D01*
X720931Y27137D01*
X720869Y27851D01*
X720825Y28567D01*
X720799Y29283D01*
X720790Y30000D01*
X720790Y450000D02*
X720799Y450717D01*
X720825Y451433D01*
X720869Y452149D01*
X720931Y452863D01*
X721010Y453576D01*
X721106Y454286D01*
X721220Y454994D01*
X721351Y455699D01*
X721500Y456400D01*
X721665Y457097D01*
X721848Y457791D01*
X722048Y458479D01*
X722264Y459163D01*
X722497Y459841D01*
X722747Y460513D01*
X723013Y461178D01*
X723296Y461837D01*
X723594Y462489D01*
X723909Y463133D01*
X724239Y463769D01*
X724585Y464398D01*
X724946Y465017D01*
X725322Y465627D01*
X725713Y466228D01*
X726118Y466819D01*
X726538Y467400D01*
X726972Y467971D01*
X727420Y468531D01*
X727882Y469079D01*
X728357Y469616D01*
X728845Y470141D01*
X729345Y470655D01*
X729859Y471155D01*
X730384Y471643D01*
X730921Y472118D01*
X731469Y472580D01*
X732029Y473028D01*
X732600Y473462D01*
X733181Y473882D01*
X733772Y474287D01*
X734373Y474678D01*
X734983Y475054D01*
X735602Y475415D01*
X736231Y475761D01*
X736867Y476091D01*
X737511Y476406D01*
X738163Y476704D01*
X738822Y476987D01*
X739487Y477253D01*
X740159Y477503D01*
X740837Y477736D01*
X741521Y477952D01*
X742209Y478152D01*
X742903Y478335D01*
X743600Y478500D01*
X744301Y478649D01*
X745006Y478780D01*
X745714Y478894D01*
X746424Y478990D01*
X747137Y479069D01*
X747851Y479131D01*
X748567Y479175D01*
X749283Y479201D01*
X750000Y479210D01*
X750717Y479201D01*
X751433Y479175D01*
X752149Y479131D01*
X752863Y479069D01*
X753576Y478990D01*
X754286Y478894D01*
X754994Y478780D01*
X755699Y478649D01*
X756400Y478500D01*
X757097Y478335D01*
X757791Y478152D01*
X758479Y477952D01*
X759163Y477736D01*
X759841Y477503D01*
X760513Y477253D01*
X761178Y476987D01*
X761837Y476704D01*
X762489Y476406D01*
X763133Y476091D01*
X763769Y475761D01*
X764398Y475415D01*
X765017Y475054D01*
X765627Y474678D01*
X766228Y474287D01*
X766819Y473882D01*
X767400Y473462D01*
X767971Y473028D01*
X768531Y472580D01*
X769079Y472118D01*
X769616Y471643D01*
X770141Y471155D01*
X770655Y470655D01*
X771155Y470141D01*
X771643Y469616D01*
X772118Y469079D01*
X772580Y468531D01*
X773028Y467971D01*
X773462Y467400D01*
X773882Y466819D01*
X774287Y466228D01*
X774678Y465627D01*
X775054Y465017D01*
X775415Y464398D01*
X775761Y463769D01*
X776091Y463133D01*
X776406Y462489D01*
X776704Y461837D01*
X776987Y461178D01*
X777253Y460513D01*
X777503Y459841D01*
X777736Y459163D01*
X777952Y458479D01*
X778152Y457791D01*
X778335Y457097D01*
X778500Y456400D01*
X778649Y455699D01*
X778780Y454994D01*
X778894Y454286D01*
X778990Y453576D01*
X779069Y452863D01*
X779131Y452149D01*
X779175Y451433D01*
X779201Y450717D01*
X779210Y450000D01*
X779201Y449283D01*
X779175Y448567D01*
X779131Y447851D01*
X779069Y447137D01*
X778990Y446424D01*
X778894Y445714D01*
X778780Y445006D01*
X778649Y444301D01*
X778500Y443600D01*
X778335Y442903D01*
X778152Y442209D01*
X777952Y441521D01*
X777736Y440837D01*
X777503Y440159D01*
X777253Y439487D01*
X776987Y438822D01*
X776704Y438163D01*
X776406Y437511D01*
X776091Y436867D01*
X775761Y436231D01*
X775415Y435602D01*
X775054Y434983D01*
X774678Y434373D01*
X774287Y433772D01*
X773882Y433181D01*
X773462Y432600D01*
X773028Y432029D01*
X772580Y431469D01*
X772118Y430921D01*
X771643Y430384D01*
X771155Y429859D01*
X770655Y429345D01*
X770141Y428845D01*
X769616Y428357D01*
X769079Y427882D01*
X768531Y427420D01*
X767971Y426972D01*
X767400Y426538D01*
X766819Y426118D01*
X766228Y425713D01*
X765627Y425322D01*
X765017Y424946D01*
X764398Y424585D01*
X763769Y424239D01*
X763133Y423909D01*
X762489Y423594D01*
X761837Y423296D01*
X761178Y423013D01*
X760513Y422747D01*
X759841Y422497D01*
X759163Y422264D01*
X758479Y422048D01*
X757791Y421848D01*
X757097Y421665D01*
X756400Y421500D01*
X755699Y421351D01*
X754994Y421220D01*
X754286Y421106D01*
X753576Y421010D01*
X752863Y420931D01*
X752149Y420869D01*
X751433Y420825D01*
X750717Y420799D01*
X750000Y420790D01*
X749283Y420799D01*
X748567Y420825D01*
X747851Y420869D01*
X747137Y420931D01*
X746424Y421010D01*
X745714Y421106D01*
X745006Y421220D01*
X744301Y421351D01*
X743600Y421500D01*
X742903Y421665D01*
X742209Y421848D01*
X741521Y422048D01*
X740837Y422264D01*
X740159Y422497D01*
X739487Y422747D01*
X738822Y423013D01*
X738163Y423296D01*
X737511Y423594D01*
X736867Y423909D01*
X736231Y424239D01*
X735602Y424585D01*
X734983Y424946D01*
X734373Y425322D01*
X733772Y425713D01*
X733181Y426118D01*
X732600Y426538D01*
X732029Y426972D01*
X731469Y427420D01*
X730921Y427882D01*
X730384Y428357D01*
X729859Y428845D01*
X729345Y429345D01*
X728845Y429859D01*
X728357Y430384D01*
X727882Y430921D01*
X727420Y431469D01*
X726972Y432029D01*
X726538Y432600D01*
X726118Y433181D01*
X725713Y433772D01*
X725322Y434373D01*
X724946Y434983D01*
X724585Y435602D01*
X724239Y436231D01*
X723909Y436867D01*
X723594Y437511D01*
X723296Y438163D01*
X723013Y438822D01*
X722747Y439487D01*
X722497Y440159D01*
X722264Y440837D01*
X722048Y441521D01*
X721848Y442209D01*
X721665Y442903D01*
X721500Y443600D01*
X721351Y444301D01*
X721220Y445006D01*
X721106Y445714D01*
X721010Y446424D01*
X720931Y447137D01*
X720869Y447851D01*
X720825Y448567D01*
X720799Y449283D01*
X720790Y450000D01*
X790Y30000D02*
X799Y30717D01*
X825Y31433D01*
X869Y32149D01*
X931Y32863D01*
X1010Y33576D01*
X1106Y34286D01*
X1220Y34994D01*
X1351Y35699D01*
X1500Y36400D01*
X1665Y37097D01*
X1848Y37791D01*
X2048Y38479D01*
X2264Y39163D01*
X2497Y39841D01*
X2747Y40513D01*
X3013Y41178D01*
X3296Y41837D01*
X3594Y42489D01*
X3909Y43133D01*
X4239Y43769D01*
X4585Y44398D01*
X4946Y45017D01*
X5322Y45627D01*
X5713Y46228D01*
X6118Y46819D01*
X6538Y47400D01*
X6972Y47971D01*
X7420Y48531D01*
X7882Y49079D01*
X8357Y49616D01*
X8845Y50141D01*
X9345Y50655D01*
X9859Y51155D01*
X10384Y51643D01*
X10921Y52118D01*
X11469Y52580D01*
X12029Y53028D01*
X12600Y53462D01*
X13181Y53882D01*
X13772Y54287D01*
X14373Y54678D01*
X14983Y55054D01*
X15602Y55415D01*
X16231Y55761D01*
X16867Y56091D01*
X17511Y56406D01*
X18163Y56704D01*
X18822Y56987D01*
X19487Y57253D01*
X20159Y57503D01*
X20837Y57736D01*
X21521Y57952D01*
X22209Y58152D01*
X22903Y58335D01*
X23600Y58500D01*
X24301Y58649D01*
X25006Y58780D01*
X25714Y58894D01*
X26424Y58990D01*
X27137Y59069D01*
X27851Y59131D01*
X28567Y59175D01*
X29283Y59201D01*
X30000Y59210D01*
X30717Y59201D01*
X31433Y59175D01*
X32149Y59131D01*
X32863Y59069D01*
X33576Y58990D01*
X34286Y58894D01*
X34994Y58780D01*
X35699Y58649D01*
X36400Y58500D01*
X37097Y58335D01*
X37791Y58152D01*
X38479Y57952D01*
X39163Y57736D01*
X39841Y57503D01*
X40513Y57253D01*
X41178Y56987D01*
X41837Y56704D01*
X42489Y56406D01*
X43133Y56091D01*
X43769Y55761D01*
X44398Y55415D01*
X45017Y55054D01*
X45627Y54678D01*
X46228Y54287D01*
X46819Y53882D01*
X47400Y53462D01*
X47971Y53028D01*
X48531Y52580D01*
X49079Y52118D01*
X49616Y51643D01*
X50141Y51155D01*
X50655Y50655D01*
X51155Y50141D01*
X51643Y49616D01*
X52118Y49079D01*
X52580Y48531D01*
X53028Y47971D01*
X53462Y47400D01*
X53882Y46819D01*
X54287Y46228D01*
X54678Y45627D01*
X55054Y45017D01*
X55415Y44398D01*
X55761Y43769D01*
X56091Y43133D01*
X56406Y42489D01*
X56704Y41837D01*
X56987Y41178D01*
X57253Y40513D01*
X57503Y39841D01*
X57736Y39163D01*
X57952Y38479D01*
X58152Y37791D01*
X58335Y37097D01*
X58500Y36400D01*
X58649Y35699D01*
X58780Y34994D01*
X58894Y34286D01*
X58990Y33576D01*
X59069Y32863D01*
X59131Y32149D01*
X59175Y31433D01*
X59201Y30717D01*
X59210Y30000D01*
X59201Y29283D01*
X59175Y28567D01*
X59131Y27851D01*
X59069Y27137D01*
X58990Y26424D01*
X58894Y25714D01*
X58780Y25006D01*
X58649Y24301D01*
X58500Y23600D01*
X58335Y22903D01*
X58152Y22209D01*
X57952Y21521D01*
X57736Y20837D01*
X57503Y20159D01*
X57253Y19487D01*
X56987Y18822D01*
X56704Y18163D01*
X56406Y17511D01*
X56091Y16867D01*
X55761Y16231D01*
X55415Y15602D01*
X55054Y14983D01*
X54678Y14373D01*
X54287Y13772D01*
X53882Y13181D01*
X53462Y12600D01*
X53028Y12029D01*
X52580Y11469D01*
X52118Y10921D01*
X51643Y10384D01*
X51155Y9859D01*
X50655Y9345D01*
X50141Y8845D01*
X49616Y8357D01*
X49079Y7882D01*
X48531Y7420D01*
X47971Y6972D01*
X47400Y6538D01*
X46819Y6118D01*
X46228Y5713D01*
X45627Y5322D01*
X45017Y4946D01*
X44398Y4585D01*
X43769Y4239D01*
X43133Y3909D01*
X42489Y3594D01*
X41837Y3296D01*
X41178Y3013D01*
X40513Y2747D01*
X39841Y2497D01*
X39163Y2264D01*
X38479Y2048D01*
X37791Y1848D01*
X37097Y1665D01*
X36400Y1500D01*
X35699Y1351D01*
X34994Y1220D01*
X34286Y1106D01*
X33576Y1010D01*
X32863Y931D01*
X32149Y869D01*
X31433Y825D01*
X30717Y799D01*
X30000Y790D01*
X29283Y799D01*
X28567Y825D01*
X27851Y869D01*
X27137Y931D01*
X26424Y1010D01*
X25714Y1106D01*
X25006Y1220D01*
X24301Y1351D01*
X23600Y1500D01*
X22903Y1665D01*
X22209Y1848D01*
X21521Y2048D01*
X20837Y2264D01*
X20159Y2497D01*
X19487Y2747D01*
X18822Y3013D01*
X18163Y3296D01*
X17511Y3594D01*
X16867Y3909D01*
X16231Y4239D01*
X15602Y4585D01*
X14983Y4946D01*
X14373Y5322D01*
X13772Y5713D01*
X13181Y6118D01*
X12600Y6538D01*
X12029Y6972D01*
X11469Y7420D01*
X10921Y7882D01*
X10384Y8357D01*
X9859Y8845D01*
X9345Y9345D01*
X8845Y9859D01*
X8357Y10384D01*
X7882Y10921D01*
X7420Y11469D01*
X6972Y12029D01*
X6538Y12600D01*
X6118Y13181D01*
X5713Y13772D01*
X5322Y14373D01*
X4946Y14983D01*
X4585Y15602D01*
X4239Y16231D01*
X3909Y16867D01*
X3594Y17511D01*
X3296Y18163D01*
X3013Y18822D01*
X2747Y19487D01*
X2497Y20159D01*
X2264Y20837D01*
X2048Y21521D01*
X1848Y22209D01*
X1665Y22903D01*
X1500Y23600D01*
X1351Y24301D01*
X1220Y25006D01*
X1106Y25714D01*
X1010Y26424D01*
X931Y27137D01*
X869Y27851D01*
X825Y28567D01*
X799Y29283D01*
X790Y30000D01*
X790Y450000D02*
X799Y450717D01*
X825Y451433D01*
X869Y452149D01*
X931Y452863D01*
X1010Y453576D01*
X1106Y454286D01*
X1220Y454994D01*
X1351Y455699D01*
X1500Y456400D01*
X1665Y457097D01*
X1848Y457791D01*
X2048Y458479D01*
X2264Y459163D01*
X2497Y459841D01*
X2747Y460513D01*
X3013Y461178D01*
X3296Y461837D01*
X3594Y462489D01*
X3909Y463133D01*
X4239Y463769D01*
X4585Y464398D01*
X4946Y465017D01*
X5322Y465627D01*
X5713Y466228D01*
X6118Y466819D01*
X6538Y467400D01*
X6972Y467971D01*
X7420Y468531D01*
X7882Y469079D01*
X8357Y469616D01*
X8845Y470141D01*
X9345Y470655D01*
X9859Y471155D01*
X10384Y471643D01*
X10921Y472118D01*
X11469Y472580D01*
X12029Y473028D01*
X12600Y473462D01*
X13181Y473882D01*
X13772Y474287D01*
X14373Y474678D01*
X14983Y475054D01*
X15602Y475415D01*
X16231Y475761D01*
X16867Y476091D01*
X17511Y476406D01*
X18163Y476704D01*
X18822Y476987D01*
X19487Y477253D01*
X20159Y477503D01*
X20837Y477736D01*
X21521Y477952D01*
X22209Y478152D01*
X22903Y478335D01*
X23600Y478500D01*
X24301Y478649D01*
X25006Y478780D01*
X25714Y478894D01*
X26424Y478990D01*
X27137Y479069D01*
X27851Y479131D01*
X28567Y479175D01*
X29283Y479201D01*
X30000Y479210D01*
X30717Y479201D01*
X31433Y479175D01*
X32149Y479131D01*
X32863Y479069D01*
X33576Y478990D01*
X34286Y478894D01*
X34994Y478780D01*
X35699Y478649D01*
X36400Y478500D01*
X37097Y478335D01*
X37791Y478152D01*
X38479Y477952D01*
X39163Y477736D01*
X39841Y477503D01*
X40513Y477253D01*
X41178Y476987D01*
X41837Y476704D01*
X42489Y476406D01*
X43133Y476091D01*
X43769Y475761D01*
X44398Y475415D01*
X45017Y475054D01*
X45627Y474678D01*
X46228Y474287D01*
X46819Y473882D01*
X47400Y473462D01*
X47971Y473028D01*
X48531Y472580D01*
X49079Y472118D01*
X49616Y471643D01*
X50141Y471155D01*
X50655Y470655D01*
X51155Y470141D01*
X51643Y469616D01*
X52118Y469079D01*
X52580Y468531D01*
X53028Y467971D01*
X53462Y467400D01*
X53882Y466819D01*
X54287Y466228D01*
X54678Y465627D01*
X55054Y465017D01*
X55415Y464398D01*
X55761Y463769D01*
X56091Y463133D01*
X56406Y462489D01*
X56704Y461837D01*
X56987Y461178D01*
X57253Y460513D01*
X57503Y459841D01*
X57736Y459163D01*
X57952Y458479D01*
X58152Y457791D01*
X58335Y457097D01*
X58500Y456400D01*
X58649Y455699D01*
X58780Y454994D01*
X58894Y454286D01*
X58990Y453576D01*
X59069Y452863D01*
X59131Y452149D01*
X59175Y451433D01*
X59201Y450717D01*
X59210Y450000D01*
X59201Y449283D01*
X59175Y448567D01*
X59131Y447851D01*
X59069Y447137D01*
X58990Y446424D01*
X58894Y445714D01*
X58780Y445006D01*
X58649Y444301D01*
X58500Y443600D01*
X58335Y442903D01*
X58152Y442209D01*
X57952Y441521D01*
X57736Y440837D01*
X57503Y440159D01*
X57253Y439487D01*
X56987Y438822D01*
X56704Y438163D01*
X56406Y437511D01*
X56091Y436867D01*
X55761Y436231D01*
X55415Y435602D01*
X55054Y434983D01*
X54678Y434373D01*
X54287Y433772D01*
X53882Y433181D01*
X53462Y432600D01*
X53028Y432029D01*
X52580Y431469D01*
X52118Y430921D01*
X51643Y430384D01*
X51155Y429859D01*
X50655Y429345D01*
X50141Y428845D01*
X49616Y428357D01*
X49079Y427882D01*
X48531Y427420D01*
X47971Y426972D01*
X47400Y426538D01*
X46819Y426118D01*
X46228Y425713D01*
X45627Y425322D01*
X45017Y424946D01*
X44398Y424585D01*
X43769Y424239D01*
X43133Y423909D01*
X42489Y423594D01*
X41837Y423296D01*
X41178Y423013D01*
X40513Y422747D01*
X39841Y422497D01*
X39163Y422264D01*
X38479Y422048D01*
X37791Y421848D01*
X37097Y421665D01*
X36400Y421500D01*
X35699Y421351D01*
X34994Y421220D01*
X34286Y421106D01*
X33576Y421010D01*
X32863Y420931D01*
X32149Y420869D01*
X31433Y420825D01*
X30717Y420799D01*
X30000Y420790D01*
X29283Y420799D01*
X28567Y420825D01*
X27851Y420869D01*
X27137Y420931D01*
X26424Y421010D01*
X25714Y421106D01*
X25006Y421220D01*
X24301Y421351D01*
X23600Y421500D01*
X22903Y421665D01*
X22209Y421848D01*
X21521Y422048D01*
X20837Y422264D01*
X20159Y422497D01*
X19487Y422747D01*
X18822Y423013D01*
X18163Y423296D01*
X17511Y423594D01*
X16867Y423909D01*
X16231Y424239D01*
X15602Y424585D01*
X14983Y424946D01*
X14373Y425322D01*
X13772Y425713D01*
X13181Y426118D01*
X12600Y426538D01*
X12029Y426972D01*
X11469Y427420D01*
X10921Y427882D01*
X10384Y428357D01*
X9859Y428845D01*
X9345Y429345D01*
X8845Y429859D01*
X8357Y430384D01*
X7882Y430921D01*
X7420Y431469D01*
X6972Y432029D01*
X6538Y432600D01*
X6118Y433181D01*
X5713Y433772D01*
X5322Y434373D01*
X4946Y434983D01*
X4585Y435602D01*
X4239Y436231D01*
X3909Y436867D01*
X3594Y437511D01*
X3296Y438163D01*
X3013Y438822D01*
X2747Y439487D01*
X2497Y440159D01*
X2264Y440837D01*
X2048Y441521D01*
X1848Y442209D01*
X1665Y442903D01*
X1500Y443600D01*
X1351Y444301D01*
X1220Y445006D01*
X1106Y445714D01*
X1010Y446424D01*
X931Y447137D01*
X869Y447851D01*
X825Y448567D01*
X799Y449283D01*
X790Y450000D01*
D17*
X514550Y416300D03*
D11*
X476169Y449321D02*
X473712Y451778D01*
X473712Y444406D01*
X476169Y444406D02*
X471254Y444406D01*
D18*
X465550Y458800D02*
X564050Y458800D01*
X465550Y458800D02*
X465550Y413800D01*
X564050Y413800D01*
X564050Y458800D01*
D17*
X514550Y416300D03*
D11*
X476169Y449321D02*
X473712Y451778D01*
X473712Y444406D01*
X476169Y444406D02*
X471254Y444406D01*
D17*
X622500Y416300D03*
D11*
X584119Y449321D02*
X581662Y451778D01*
X581662Y444406D01*
X584119Y444406D02*
X579204Y444406D01*
D18*
X573500Y458800D02*
X672000Y458800D01*
X573500Y458800D02*
X573500Y413800D01*
X672000Y413800D01*
X672000Y458800D01*
D17*
X622500Y416300D03*
D11*
X584119Y449321D02*
X581662Y451778D01*
X581662Y444406D01*
X584119Y444406D02*
X579204Y444406D01*
M02*
