G04 EAGLE Gerber RS-274X export*
G75*
%MOMM*%
%FSLAX34Y34*%
%LPD*%
%INSilkscreen Top*%
%IPPOS*%
%AMOC8*
5,1,8,0,0,1.08239X$1,22.5*%
G01*
%ADD10C,0.152400*%
%ADD11C,0.076200*%
%ADD12C,0.101600*%
%ADD13R,13.500000X4.750000*%
%ADD14C,0.127000*%
%ADD15R,4.000000X0.500000*%
%ADD16R,0.500000X4.000000*%
%ADD17C,0.050800*%


D10*
X211886Y37352D02*
X211886Y21082D01*
X220021Y21082D01*
X222733Y23794D01*
X222733Y34640D01*
X220021Y37352D01*
X211886Y37352D01*
X236393Y37352D02*
X239104Y34640D01*
X236393Y37352D02*
X230969Y37352D01*
X228258Y34640D01*
X228258Y23794D01*
X230969Y21082D01*
X236393Y21082D01*
X239104Y23794D01*
X252764Y37352D02*
X255476Y34640D01*
X252764Y37352D02*
X247341Y37352D01*
X244629Y34640D01*
X244629Y31929D01*
X247341Y29217D01*
X252764Y29217D01*
X255476Y26505D01*
X255476Y23794D01*
X252764Y21082D01*
X247341Y21082D01*
X244629Y23794D01*
X285507Y37352D02*
X288219Y34640D01*
X285507Y37352D02*
X280084Y37352D01*
X277372Y34640D01*
X277372Y23794D01*
X280084Y21082D01*
X285507Y21082D01*
X288219Y23794D01*
X288219Y29217D01*
X282796Y29217D01*
X293744Y37352D02*
X304591Y37352D01*
X293744Y37352D02*
X293744Y21082D01*
X304591Y21082D01*
X299167Y29217D02*
X293744Y29217D01*
X310116Y21082D02*
X310116Y37352D01*
X320962Y21082D01*
X320962Y37352D01*
X326487Y37352D02*
X337334Y37352D01*
X326487Y37352D02*
X326487Y21082D01*
X337334Y21082D01*
X331910Y29217D02*
X326487Y29217D01*
X342859Y21082D02*
X342859Y37352D01*
X350994Y37352D01*
X353705Y34640D01*
X353705Y29217D01*
X350994Y26505D01*
X342859Y26505D01*
X348282Y26505D02*
X353705Y21082D01*
X359230Y21082D02*
X359230Y31929D01*
X364654Y37352D01*
X370077Y31929D01*
X370077Y21082D01*
X370077Y29217D02*
X359230Y29217D01*
X375602Y37352D02*
X375602Y21082D01*
X386448Y21082D01*
X416480Y37352D02*
X419192Y34640D01*
X416480Y37352D02*
X411057Y37352D01*
X408345Y34640D01*
X408345Y31929D01*
X411057Y29217D01*
X416480Y29217D01*
X419192Y26505D01*
X419192Y23794D01*
X416480Y21082D01*
X411057Y21082D01*
X408345Y23794D01*
X424717Y21082D02*
X424717Y37352D01*
X430140Y26505D02*
X424717Y21082D01*
X430140Y26505D02*
X435563Y21082D01*
X435563Y37352D01*
X441088Y21082D02*
X446511Y21082D01*
X443800Y21082D02*
X443800Y37352D01*
X446511Y37352D02*
X441088Y37352D01*
X457426Y37352D02*
X457426Y21082D01*
X462849Y37352D02*
X452002Y37352D01*
X476509Y37352D02*
X479221Y34640D01*
X476509Y37352D02*
X471086Y37352D01*
X468374Y34640D01*
X468374Y23794D01*
X471086Y21082D01*
X476509Y21082D01*
X479221Y23794D01*
X484746Y21082D02*
X484746Y37352D01*
X484746Y29217D02*
X495592Y29217D01*
X495592Y37352D02*
X495592Y21082D01*
X517489Y21082D02*
X517489Y37352D01*
X525624Y37352D01*
X528335Y34640D01*
X528335Y31929D01*
X525624Y29217D01*
X528335Y26505D01*
X528335Y23794D01*
X525624Y21082D01*
X517489Y21082D01*
X517489Y29217D02*
X525624Y29217D01*
X536572Y37352D02*
X541995Y37352D01*
X536572Y37352D02*
X533860Y34640D01*
X533860Y23794D01*
X536572Y21082D01*
X541995Y21082D01*
X544707Y23794D01*
X544707Y34640D01*
X541995Y37352D01*
X550232Y31929D02*
X550232Y21082D01*
X550232Y31929D02*
X555655Y37352D01*
X561078Y31929D01*
X561078Y21082D01*
X561078Y29217D02*
X550232Y29217D01*
X566603Y21082D02*
X566603Y37352D01*
X574738Y37352D01*
X577450Y34640D01*
X577450Y29217D01*
X574738Y26505D01*
X566603Y26505D01*
X572027Y26505D02*
X577450Y21082D01*
X582975Y21082D02*
X582975Y37352D01*
X582975Y21082D02*
X591110Y21082D01*
X593822Y23794D01*
X593822Y34640D01*
X591110Y37352D01*
X582975Y37352D01*
X615718Y37352D02*
X615718Y26505D01*
X621141Y21082D01*
X626565Y26505D01*
X626565Y37352D01*
X637513Y34640D02*
X642936Y37352D01*
X637513Y34640D02*
X632090Y29217D01*
X632090Y23794D01*
X634801Y21082D01*
X640225Y21082D01*
X642936Y23794D01*
X642936Y26505D01*
X640225Y29217D01*
X632090Y29217D01*
D11*
X246881Y408531D02*
X246881Y415903D01*
X246881Y408531D02*
X250567Y408531D01*
X251796Y409760D01*
X251796Y414675D01*
X250567Y415903D01*
X246881Y415903D01*
X255594Y415903D02*
X258051Y415903D01*
X255594Y415903D02*
X254365Y414675D01*
X254365Y409760D01*
X255594Y408531D01*
X258051Y408531D01*
X259280Y409760D01*
X259280Y414675D01*
X258051Y415903D01*
X261849Y415903D02*
X261849Y409760D01*
X263078Y408531D01*
X265535Y408531D01*
X266764Y409760D01*
X266764Y415903D01*
X269333Y415903D02*
X269333Y408531D01*
X269333Y415903D02*
X273020Y415903D01*
X274248Y414675D01*
X274248Y413446D01*
X273020Y412217D01*
X274248Y410988D01*
X274248Y409760D01*
X273020Y408531D01*
X269333Y408531D01*
X269333Y412217D02*
X273020Y412217D01*
X276818Y415903D02*
X276818Y408531D01*
X281732Y408531D01*
X284302Y415903D02*
X289217Y415903D01*
X284302Y415903D02*
X284302Y408531D01*
X289217Y408531D01*
X286759Y412217D02*
X284302Y412217D01*
X299270Y415903D02*
X304185Y408531D01*
X299270Y408531D02*
X304185Y415903D01*
X316696Y414675D02*
X319153Y415903D01*
X316696Y414675D02*
X314238Y412217D01*
X314238Y409760D01*
X315467Y408531D01*
X317925Y408531D01*
X319153Y409760D01*
X319153Y410988D01*
X317925Y412217D01*
X314238Y412217D01*
X353317Y414153D02*
X354546Y412925D01*
X353317Y414153D02*
X350860Y414153D01*
X349631Y412925D01*
X349631Y411696D01*
X350860Y410467D01*
X353317Y410467D01*
X354546Y409238D01*
X354546Y408010D01*
X353317Y406781D01*
X350860Y406781D01*
X349631Y408010D01*
X357115Y406781D02*
X359573Y406781D01*
X358344Y406781D02*
X358344Y414153D01*
X357115Y414153D02*
X359573Y414153D01*
X362105Y414153D02*
X362105Y406781D01*
X367019Y406781D02*
X362105Y414153D01*
X367019Y414153D02*
X367019Y406781D01*
X373275Y414153D02*
X374504Y412925D01*
X373275Y414153D02*
X370817Y414153D01*
X369589Y412925D01*
X369589Y408010D01*
X370817Y406781D01*
X373275Y406781D01*
X374504Y408010D01*
X374504Y410467D01*
X372046Y410467D01*
X377073Y414153D02*
X377073Y406781D01*
X381988Y406781D01*
X384557Y414153D02*
X389472Y414153D01*
X384557Y414153D02*
X384557Y406781D01*
X389472Y406781D01*
X387014Y410467D02*
X384557Y410467D01*
X399525Y414153D02*
X404440Y406781D01*
X399525Y406781D02*
X404440Y414153D01*
X414494Y412925D02*
X415722Y414153D01*
X418180Y414153D01*
X419409Y412925D01*
X419409Y411696D01*
X418180Y410467D01*
X416951Y410467D01*
X418180Y410467D02*
X419409Y409238D01*
X419409Y408010D01*
X418180Y406781D01*
X415722Y406781D01*
X414494Y408010D01*
X157981Y408531D02*
X157981Y415903D01*
X157981Y408531D02*
X161667Y408531D01*
X162896Y409760D01*
X162896Y414675D01*
X161667Y415903D01*
X157981Y415903D01*
X166694Y415903D02*
X169151Y415903D01*
X166694Y415903D02*
X165465Y414675D01*
X165465Y409760D01*
X166694Y408531D01*
X169151Y408531D01*
X170380Y409760D01*
X170380Y414675D01*
X169151Y415903D01*
X172949Y415903D02*
X172949Y409760D01*
X174178Y408531D01*
X176635Y408531D01*
X177864Y409760D01*
X177864Y415903D01*
X180433Y415903D02*
X180433Y408531D01*
X180433Y415903D02*
X184120Y415903D01*
X185348Y414675D01*
X185348Y413446D01*
X184120Y412217D01*
X185348Y410988D01*
X185348Y409760D01*
X184120Y408531D01*
X180433Y408531D01*
X180433Y412217D02*
X184120Y412217D01*
X187918Y415903D02*
X187918Y408531D01*
X192832Y408531D01*
X195402Y415903D02*
X200317Y415903D01*
X195402Y415903D02*
X195402Y408531D01*
X200317Y408531D01*
X197859Y412217D02*
X195402Y412217D01*
X210370Y415903D02*
X215285Y408531D01*
X210370Y408531D02*
X215285Y415903D01*
X227796Y414675D02*
X230253Y415903D01*
X227796Y414675D02*
X225338Y412217D01*
X225338Y409760D01*
X226567Y408531D01*
X229025Y408531D01*
X230253Y409760D01*
X230253Y410988D01*
X229025Y412217D01*
X225338Y412217D01*
X71581Y415903D02*
X71581Y408531D01*
X75267Y408531D01*
X76496Y409760D01*
X76496Y414675D01*
X75267Y415903D01*
X71581Y415903D01*
X80294Y415903D02*
X82751Y415903D01*
X80294Y415903D02*
X79065Y414675D01*
X79065Y409760D01*
X80294Y408531D01*
X82751Y408531D01*
X83980Y409760D01*
X83980Y414675D01*
X82751Y415903D01*
X86549Y415903D02*
X86549Y409760D01*
X87778Y408531D01*
X90235Y408531D01*
X91464Y409760D01*
X91464Y415903D01*
X94033Y415903D02*
X94033Y408531D01*
X94033Y415903D02*
X97720Y415903D01*
X98948Y414675D01*
X98948Y413446D01*
X97720Y412217D01*
X98948Y410988D01*
X98948Y409760D01*
X97720Y408531D01*
X94033Y408531D01*
X94033Y412217D02*
X97720Y412217D01*
X101518Y415903D02*
X101518Y408531D01*
X106432Y408531D01*
X109002Y415903D02*
X113917Y415903D01*
X109002Y415903D02*
X109002Y408531D01*
X113917Y408531D01*
X111459Y412217D02*
X109002Y412217D01*
X123970Y415903D02*
X128885Y408531D01*
X123970Y408531D02*
X128885Y415903D01*
X141396Y414675D02*
X143853Y415903D01*
X141396Y414675D02*
X138938Y412217D01*
X138938Y409760D01*
X140167Y408531D01*
X142625Y408531D01*
X143853Y409760D01*
X143853Y410988D01*
X142625Y412217D01*
X138938Y412217D01*
X70231Y83953D02*
X70231Y76581D01*
X73917Y76581D01*
X75146Y77810D01*
X75146Y82725D01*
X73917Y83953D01*
X70231Y83953D01*
X78944Y83953D02*
X81401Y83953D01*
X78944Y83953D02*
X77715Y82725D01*
X77715Y77810D01*
X78944Y76581D01*
X81401Y76581D01*
X82630Y77810D01*
X82630Y82725D01*
X81401Y83953D01*
X85199Y83953D02*
X85199Y77810D01*
X86428Y76581D01*
X88885Y76581D01*
X90114Y77810D01*
X90114Y83953D01*
X92683Y83953D02*
X92683Y76581D01*
X92683Y83953D02*
X96370Y83953D01*
X97598Y82725D01*
X97598Y81496D01*
X96370Y80267D01*
X97598Y79038D01*
X97598Y77810D01*
X96370Y76581D01*
X92683Y76581D01*
X92683Y80267D02*
X96370Y80267D01*
X100168Y83953D02*
X100168Y76581D01*
X105082Y76581D01*
X107652Y83953D02*
X112567Y83953D01*
X107652Y83953D02*
X107652Y76581D01*
X112567Y76581D01*
X110109Y80267D02*
X107652Y80267D01*
X122620Y83953D02*
X127535Y76581D01*
X122620Y76581D02*
X127535Y83953D01*
X140046Y82725D02*
X142503Y83953D01*
X140046Y82725D02*
X137588Y80267D01*
X137588Y77810D01*
X138817Y76581D01*
X141275Y76581D01*
X142503Y77810D01*
X142503Y79038D01*
X141275Y80267D01*
X137588Y80267D01*
X159131Y83953D02*
X159131Y76581D01*
X162817Y76581D01*
X164046Y77810D01*
X164046Y82725D01*
X162817Y83953D01*
X159131Y83953D01*
X167844Y83953D02*
X170301Y83953D01*
X167844Y83953D02*
X166615Y82725D01*
X166615Y77810D01*
X167844Y76581D01*
X170301Y76581D01*
X171530Y77810D01*
X171530Y82725D01*
X170301Y83953D01*
X174099Y83953D02*
X174099Y77810D01*
X175328Y76581D01*
X177785Y76581D01*
X179014Y77810D01*
X179014Y83953D01*
X181583Y83953D02*
X181583Y76581D01*
X181583Y83953D02*
X185270Y83953D01*
X186498Y82725D01*
X186498Y81496D01*
X185270Y80267D01*
X186498Y79038D01*
X186498Y77810D01*
X185270Y76581D01*
X181583Y76581D01*
X181583Y80267D02*
X185270Y80267D01*
X189068Y83953D02*
X189068Y76581D01*
X193982Y76581D01*
X196552Y83953D02*
X201467Y83953D01*
X196552Y83953D02*
X196552Y76581D01*
X201467Y76581D01*
X199009Y80267D02*
X196552Y80267D01*
X211520Y83953D02*
X216435Y76581D01*
X211520Y76581D02*
X216435Y83953D01*
X228946Y82725D02*
X231403Y83953D01*
X228946Y82725D02*
X226488Y80267D01*
X226488Y77810D01*
X227717Y76581D01*
X230175Y76581D01*
X231403Y77810D01*
X231403Y79038D01*
X230175Y80267D01*
X226488Y80267D01*
X248031Y83953D02*
X248031Y76581D01*
X251717Y76581D01*
X252946Y77810D01*
X252946Y82725D01*
X251717Y83953D01*
X248031Y83953D01*
X256744Y83953D02*
X259201Y83953D01*
X256744Y83953D02*
X255515Y82725D01*
X255515Y77810D01*
X256744Y76581D01*
X259201Y76581D01*
X260430Y77810D01*
X260430Y82725D01*
X259201Y83953D01*
X262999Y83953D02*
X262999Y77810D01*
X264228Y76581D01*
X266685Y76581D01*
X267914Y77810D01*
X267914Y83953D01*
X270483Y83953D02*
X270483Y76581D01*
X270483Y83953D02*
X274170Y83953D01*
X275398Y82725D01*
X275398Y81496D01*
X274170Y80267D01*
X275398Y79038D01*
X275398Y77810D01*
X274170Y76581D01*
X270483Y76581D01*
X270483Y80267D02*
X274170Y80267D01*
X277968Y83953D02*
X277968Y76581D01*
X282882Y76581D01*
X285452Y83953D02*
X290367Y83953D01*
X285452Y83953D02*
X285452Y76581D01*
X290367Y76581D01*
X287909Y80267D02*
X285452Y80267D01*
X300420Y83953D02*
X305335Y76581D01*
X300420Y76581D02*
X305335Y83953D01*
X317846Y82725D02*
X320303Y83953D01*
X317846Y82725D02*
X315388Y80267D01*
X315388Y77810D01*
X316617Y76581D01*
X319075Y76581D01*
X320303Y77810D01*
X320303Y79038D01*
X319075Y80267D01*
X315388Y80267D01*
X95960Y60031D02*
X94731Y61260D01*
X95960Y60031D02*
X97188Y60031D01*
X98417Y61260D01*
X98417Y67403D01*
X97188Y67403D02*
X99646Y67403D01*
X105901Y67403D02*
X107130Y66175D01*
X105901Y67403D02*
X103444Y67403D01*
X102215Y66175D01*
X102215Y64946D01*
X103444Y63717D01*
X105901Y63717D01*
X107130Y62488D01*
X107130Y61260D01*
X105901Y60031D01*
X103444Y60031D01*
X102215Y61260D01*
X112157Y60031D02*
X112157Y67403D01*
X114614Y67403D02*
X109699Y67403D01*
X124668Y67403D02*
X124668Y60031D01*
X124668Y67403D02*
X128354Y67403D01*
X129582Y66175D01*
X129582Y63717D01*
X128354Y62488D01*
X124668Y62488D01*
X132152Y60031D02*
X132152Y67403D01*
X132152Y63717D02*
X137067Y63717D01*
X137067Y67403D02*
X137067Y60031D01*
X147120Y60031D02*
X152035Y60031D01*
X147120Y60031D02*
X152035Y64946D01*
X152035Y66175D01*
X150806Y67403D01*
X148349Y67403D01*
X147120Y66175D01*
X154604Y64946D02*
X154604Y60031D01*
X154604Y64946D02*
X155833Y64946D01*
X157062Y63717D01*
X157062Y60031D01*
X157062Y63717D02*
X158290Y64946D01*
X159519Y63717D01*
X159519Y60031D01*
X162088Y60031D02*
X162088Y64946D01*
X163317Y64946D01*
X164546Y63717D01*
X164546Y60031D01*
X164546Y63717D02*
X165775Y64946D01*
X167003Y63717D01*
X167003Y60031D01*
D12*
X451358Y57658D02*
X451358Y69352D01*
X451358Y57658D02*
X459154Y57658D01*
X463052Y69352D02*
X470848Y69352D01*
X463052Y69352D02*
X463052Y57658D01*
X470848Y57658D01*
X466950Y63505D02*
X463052Y63505D01*
X474746Y69352D02*
X474746Y57658D01*
X480593Y57658D01*
X482542Y59607D01*
X482542Y67403D01*
X480593Y69352D01*
X474746Y69352D01*
X486440Y57658D02*
X492287Y57658D01*
X494236Y59607D01*
X492287Y61556D01*
X488389Y61556D01*
X486440Y63505D01*
X488389Y65454D01*
X494236Y65454D01*
X515675Y69352D02*
X517624Y67403D01*
X515675Y69352D02*
X511777Y69352D01*
X509828Y67403D01*
X509828Y59607D01*
X511777Y57658D01*
X515675Y57658D01*
X517624Y59607D01*
X523471Y69352D02*
X527369Y69352D01*
X523471Y69352D02*
X521522Y67403D01*
X521522Y59607D01*
X523471Y57658D01*
X527369Y57658D01*
X529318Y59607D01*
X529318Y67403D01*
X527369Y69352D01*
X533216Y69352D02*
X533216Y57658D01*
X537114Y65454D02*
X533216Y69352D01*
X537114Y65454D02*
X541012Y69352D01*
X541012Y57658D01*
X544910Y57658D02*
X544910Y69352D01*
X548808Y65454D01*
X552706Y69352D01*
X552706Y57658D01*
X558553Y69352D02*
X562451Y69352D01*
X558553Y69352D02*
X556604Y67403D01*
X556604Y59607D01*
X558553Y57658D01*
X562451Y57658D01*
X564400Y59607D01*
X564400Y67403D01*
X562451Y69352D01*
X568298Y69352D02*
X568298Y57658D01*
X576094Y57658D02*
X568298Y69352D01*
X576094Y69352D02*
X576094Y57658D01*
X591686Y57658D02*
X591686Y65454D01*
X595584Y69352D01*
X599482Y65454D01*
X599482Y57658D01*
X599482Y63505D02*
X591686Y63505D01*
X603380Y57658D02*
X603380Y69352D01*
X611176Y57658D01*
X611176Y69352D01*
X617023Y69352D02*
X620921Y69352D01*
X617023Y69352D02*
X615074Y67403D01*
X615074Y59607D01*
X617023Y57658D01*
X620921Y57658D01*
X622870Y59607D01*
X622870Y67403D01*
X620921Y69352D01*
X626768Y69352D02*
X626768Y57658D01*
X632615Y57658D01*
X634564Y59607D01*
X634564Y67403D01*
X632615Y69352D01*
X626768Y69352D01*
X638462Y69352D02*
X646257Y69352D01*
X638462Y69352D02*
X638462Y57658D01*
X646257Y57658D01*
X642359Y63505D02*
X638462Y63505D01*
D11*
X450469Y359667D02*
X443097Y359667D01*
X446783Y355981D01*
X446783Y360896D01*
X443097Y363465D02*
X450469Y363465D01*
X448012Y363465D02*
X443097Y368380D01*
X446783Y364694D02*
X450469Y368380D01*
X443097Y370949D02*
X443097Y375864D01*
X444325Y375864D01*
X449240Y370949D01*
X450469Y370949D01*
X512947Y359667D02*
X520319Y359667D01*
X516633Y355981D02*
X512947Y359667D01*
X516633Y360896D02*
X516633Y355981D01*
X512947Y363465D02*
X520319Y363465D01*
X517862Y363465D02*
X512947Y368380D01*
X516633Y364694D02*
X520319Y368380D01*
X512947Y370949D02*
X512947Y375864D01*
X514175Y375864D01*
X519090Y370949D01*
X520319Y370949D01*
D13*
X340000Y441250D03*
D11*
X257427Y425338D02*
X257427Y422881D01*
X257427Y424110D02*
X250055Y424110D01*
X250055Y425338D02*
X250055Y422881D01*
X257427Y427870D02*
X257427Y432785D01*
X257427Y427870D02*
X252512Y432785D01*
X251283Y432785D01*
X250055Y431557D01*
X250055Y429099D01*
X251283Y427870D01*
X250055Y439041D02*
X251283Y440269D01*
X250055Y439041D02*
X250055Y436583D01*
X251283Y435355D01*
X256198Y435355D01*
X257427Y436583D01*
X257427Y439041D01*
X256198Y440269D01*
X264704Y422881D02*
X269619Y422881D01*
X264704Y422881D02*
X262247Y425338D01*
X264704Y427796D01*
X269619Y427796D01*
X265933Y427796D02*
X265933Y422881D01*
X262247Y435280D02*
X269619Y435280D01*
X269619Y431594D01*
X268390Y430365D01*
X265933Y430365D01*
X264704Y431594D01*
X264704Y435280D01*
X262247Y442764D02*
X269619Y442764D01*
X269619Y439078D01*
X268390Y437849D01*
X265933Y437849D01*
X264704Y439078D01*
X264704Y442764D01*
X264704Y445333D02*
X269619Y445333D01*
X267162Y445333D02*
X264704Y447791D01*
X264704Y449020D01*
X269619Y452799D02*
X269619Y455256D01*
X269619Y452799D02*
X268390Y451570D01*
X265933Y451570D01*
X264704Y452799D01*
X264704Y455256D01*
X265933Y456485D01*
X267162Y456485D01*
X267162Y451570D01*
X269619Y459054D02*
X269619Y462741D01*
X268390Y463969D01*
X267162Y462741D01*
X267162Y460283D01*
X265933Y459054D01*
X264704Y460283D01*
X264704Y463969D01*
X269619Y466539D02*
X269619Y470225D01*
X268390Y471453D01*
X267162Y470225D01*
X267162Y467767D01*
X265933Y466539D01*
X264704Y467767D01*
X264704Y471453D01*
D12*
X539915Y290879D02*
X543813Y294777D01*
X543813Y283083D01*
X539915Y283083D02*
X547711Y283083D01*
X523147Y286541D02*
X521198Y284592D01*
X521198Y280694D01*
X523147Y278745D01*
X530943Y278745D01*
X532892Y280694D01*
X532892Y284592D01*
X530943Y286541D01*
X525096Y290439D02*
X521198Y294337D01*
X532892Y294337D01*
X532892Y290439D02*
X532892Y298235D01*
D10*
X419953Y287936D02*
X419953Y283364D01*
X441797Y283364D02*
X441797Y287936D01*
X439002Y286412D02*
X438975Y286313D01*
X438952Y286212D01*
X438932Y286111D01*
X438916Y286009D01*
X438904Y285907D01*
X438896Y285804D01*
X438892Y285702D01*
X438892Y285598D01*
X438896Y285496D01*
X438904Y285393D01*
X438916Y285291D01*
X438932Y285189D01*
X438952Y285088D01*
X438975Y284987D01*
X439002Y284888D01*
D11*
X441883Y295338D02*
X449849Y303303D01*
X449849Y295338D02*
X441883Y303303D01*
X445866Y303303D02*
X445866Y295338D01*
X441883Y299320D02*
X449849Y299320D01*
D10*
X325003Y219061D02*
X325003Y214489D01*
X346847Y214489D02*
X346847Y219061D01*
X344052Y217537D02*
X344025Y217438D01*
X344002Y217337D01*
X343982Y217236D01*
X343966Y217134D01*
X343954Y217032D01*
X343946Y216929D01*
X343942Y216827D01*
X343942Y216723D01*
X343946Y216621D01*
X343954Y216518D01*
X343966Y216416D01*
X343982Y216314D01*
X344002Y216213D01*
X344025Y216112D01*
X344052Y216013D01*
D11*
X346933Y226463D02*
X354899Y234428D01*
X354899Y226463D02*
X346933Y234428D01*
X350916Y234428D02*
X350916Y226463D01*
X346933Y230445D02*
X354899Y230445D01*
D14*
X140875Y141300D02*
X62365Y141300D01*
X140875Y141300D02*
X140875Y96300D01*
X62365Y96300D01*
X62365Y141300D01*
D15*
X104575Y98800D03*
D11*
X130256Y131821D02*
X132713Y134278D01*
X132713Y126906D01*
X130256Y126906D02*
X135171Y126906D01*
D14*
X151265Y141300D02*
X229775Y141300D01*
X229775Y96300D01*
X151265Y96300D01*
X151265Y141300D01*
D15*
X193475Y98800D03*
D11*
X219156Y131821D02*
X221613Y134278D01*
X221613Y126906D01*
X219156Y126906D02*
X224071Y126906D01*
D14*
X240165Y141300D02*
X318675Y141300D01*
X318675Y96300D01*
X240165Y96300D01*
X240165Y141300D01*
D15*
X282375Y98800D03*
D11*
X308056Y131821D02*
X310513Y134278D01*
X310513Y126906D01*
X308056Y126906D02*
X312971Y126906D01*
D14*
X140875Y192100D02*
X62365Y192100D01*
X140875Y192100D02*
X140875Y147100D01*
X62365Y147100D01*
X62365Y192100D01*
D15*
X104575Y149600D03*
D11*
X130256Y182621D02*
X132713Y185078D01*
X132713Y177706D01*
X130256Y177706D02*
X135171Y177706D01*
D14*
X151265Y192100D02*
X229775Y192100D01*
X229775Y147100D01*
X151265Y147100D01*
X151265Y192100D01*
D15*
X193475Y149600D03*
D11*
X219156Y182621D02*
X221613Y185078D01*
X221613Y177706D01*
X219156Y177706D02*
X224071Y177706D01*
D14*
X240165Y192100D02*
X318675Y192100D01*
X318675Y147100D01*
X240165Y147100D01*
X240165Y192100D01*
D15*
X282375Y149600D03*
D11*
X308056Y182621D02*
X310513Y185078D01*
X310513Y177706D01*
X308056Y177706D02*
X312971Y177706D01*
D14*
X140875Y242900D02*
X62365Y242900D01*
X140875Y242900D02*
X140875Y197900D01*
X62365Y197900D01*
X62365Y242900D01*
D15*
X104575Y200400D03*
D11*
X130256Y233421D02*
X132713Y235878D01*
X132713Y228506D01*
X130256Y228506D02*
X135171Y228506D01*
D14*
X151265Y242900D02*
X229775Y242900D01*
X229775Y197900D01*
X151265Y197900D01*
X151265Y242900D01*
D15*
X193475Y200400D03*
D11*
X219156Y233421D02*
X221613Y235878D01*
X221613Y228506D01*
X219156Y228506D02*
X224071Y228506D01*
D14*
X240165Y242900D02*
X318675Y242900D01*
X318675Y197900D01*
X240165Y197900D01*
X240165Y242900D01*
D15*
X282375Y200400D03*
D11*
X308056Y233421D02*
X310513Y235878D01*
X310513Y228506D01*
X308056Y228506D02*
X312971Y228506D01*
D14*
X140875Y293700D02*
X62365Y293700D01*
X140875Y293700D02*
X140875Y248700D01*
X62365Y248700D01*
X62365Y293700D01*
D15*
X104575Y251200D03*
D11*
X130256Y284221D02*
X132713Y286678D01*
X132713Y279306D01*
X130256Y279306D02*
X135171Y279306D01*
D14*
X151265Y293700D02*
X229775Y293700D01*
X229775Y248700D01*
X151265Y248700D01*
X151265Y293700D01*
D15*
X193475Y251200D03*
D11*
X219156Y284221D02*
X221613Y286678D01*
X221613Y279306D01*
X219156Y279306D02*
X224071Y279306D01*
D14*
X240165Y293700D02*
X318675Y293700D01*
X318675Y248700D01*
X240165Y248700D01*
X240165Y293700D01*
D15*
X282375Y251200D03*
D11*
X308056Y284221D02*
X310513Y286678D01*
X310513Y279306D01*
X308056Y279306D02*
X312971Y279306D01*
D14*
X140875Y344500D02*
X62365Y344500D01*
X140875Y344500D02*
X140875Y299500D01*
X62365Y299500D01*
X62365Y344500D01*
D15*
X104575Y302000D03*
D11*
X130256Y335021D02*
X132713Y337478D01*
X132713Y330106D01*
X130256Y330106D02*
X135171Y330106D01*
D14*
X151265Y344500D02*
X229775Y344500D01*
X229775Y299500D01*
X151265Y299500D01*
X151265Y344500D01*
D15*
X193475Y302000D03*
D11*
X219156Y335021D02*
X221613Y337478D01*
X221613Y330106D01*
X219156Y330106D02*
X224071Y330106D01*
D14*
X240165Y344500D02*
X318675Y344500D01*
X318675Y299500D01*
X240165Y299500D01*
X240165Y344500D01*
D15*
X282375Y302000D03*
D11*
X308056Y335021D02*
X310513Y337478D01*
X310513Y330106D01*
X308056Y330106D02*
X312971Y330106D01*
D14*
X140875Y395300D02*
X62365Y395300D01*
X140875Y395300D02*
X140875Y350300D01*
X62365Y350300D01*
X62365Y395300D01*
D15*
X104575Y352800D03*
D11*
X130256Y385821D02*
X132713Y388278D01*
X132713Y380906D01*
X130256Y380906D02*
X135171Y380906D01*
D14*
X151265Y395300D02*
X229775Y395300D01*
X229775Y350300D01*
X151265Y350300D01*
X151265Y395300D01*
D15*
X193475Y352800D03*
D11*
X219156Y385821D02*
X221613Y388278D01*
X221613Y380906D01*
X219156Y380906D02*
X224071Y380906D01*
D14*
X240165Y395300D02*
X318675Y395300D01*
X318675Y350300D01*
X240165Y350300D01*
X240165Y395300D01*
D15*
X282375Y352800D03*
D11*
X308056Y385821D02*
X310513Y388278D01*
X310513Y380906D01*
X308056Y380906D02*
X312971Y380906D01*
D14*
X332240Y395300D02*
X410750Y395300D01*
X410750Y350300D01*
X332240Y350300D01*
X332240Y395300D01*
D15*
X374450Y352800D03*
D11*
X400131Y385821D02*
X402588Y388278D01*
X402588Y380906D01*
X400131Y380906D02*
X405046Y380906D01*
D14*
X410750Y293700D02*
X332240Y293700D01*
X410750Y293700D02*
X410750Y248700D01*
X332240Y248700D01*
X332240Y293700D01*
D15*
X374450Y251200D03*
D11*
X400131Y284221D02*
X402588Y286678D01*
X402588Y279306D01*
X400131Y279306D02*
X405046Y279306D01*
D14*
X410750Y344500D02*
X332240Y344500D01*
X410750Y344500D02*
X410750Y299500D01*
X332240Y299500D01*
X332240Y344500D01*
D15*
X374450Y302000D03*
D11*
X400131Y335021D02*
X402588Y337478D01*
X402588Y330106D01*
X400131Y330106D02*
X405046Y330106D01*
D10*
X57497Y224961D02*
X57497Y220389D01*
X35653Y220389D02*
X35653Y224961D01*
X38448Y223437D02*
X38475Y223338D01*
X38498Y223237D01*
X38518Y223136D01*
X38534Y223034D01*
X38546Y222932D01*
X38554Y222829D01*
X38558Y222727D01*
X38558Y222623D01*
X38554Y222521D01*
X38546Y222418D01*
X38534Y222316D01*
X38518Y222214D01*
X38498Y222113D01*
X38475Y222012D01*
X38448Y221913D01*
D11*
X35567Y212987D02*
X27601Y205022D01*
X27601Y212987D02*
X35567Y205022D01*
X31584Y205022D02*
X31584Y212987D01*
X35567Y209005D02*
X27601Y209005D01*
D10*
X38153Y369839D02*
X38153Y374411D01*
X59997Y374411D02*
X59997Y369839D01*
X57202Y371363D02*
X57175Y371462D01*
X57152Y371563D01*
X57132Y371664D01*
X57116Y371766D01*
X57104Y371868D01*
X57096Y371971D01*
X57092Y372073D01*
X57092Y372177D01*
X57096Y372279D01*
X57104Y372382D01*
X57116Y372484D01*
X57132Y372586D01*
X57152Y372687D01*
X57175Y372788D01*
X57202Y372887D01*
D11*
X60083Y381813D02*
X68049Y389778D01*
X68049Y381813D02*
X60083Y389778D01*
X64066Y389778D02*
X64066Y381813D01*
X60083Y385795D02*
X68049Y385795D01*
D10*
X345647Y179561D02*
X345647Y174989D01*
X323803Y174989D02*
X323803Y179561D01*
X326598Y178037D02*
X326625Y177938D01*
X326648Y177837D01*
X326668Y177736D01*
X326684Y177634D01*
X326696Y177532D01*
X326704Y177429D01*
X326708Y177327D01*
X326708Y177223D01*
X326704Y177121D01*
X326696Y177018D01*
X326684Y176916D01*
X326668Y176814D01*
X326648Y176713D01*
X326625Y176612D01*
X326598Y176513D01*
D11*
X323717Y167587D02*
X315751Y159622D01*
X315751Y167587D02*
X323717Y159622D01*
X319734Y159622D02*
X319734Y167587D01*
X323717Y163605D02*
X315751Y163605D01*
D10*
X421778Y335239D02*
X421778Y339811D01*
X443622Y339811D02*
X443622Y335239D01*
X440827Y336763D02*
X440800Y336862D01*
X440777Y336963D01*
X440757Y337064D01*
X440741Y337166D01*
X440729Y337268D01*
X440721Y337371D01*
X440717Y337473D01*
X440717Y337577D01*
X440721Y337679D01*
X440729Y337782D01*
X440741Y337884D01*
X440757Y337986D01*
X440777Y338087D01*
X440800Y338188D01*
X440827Y338287D01*
D11*
X443708Y347213D02*
X451674Y355178D01*
X451674Y347213D02*
X443708Y355178D01*
X447691Y355178D02*
X447691Y347213D01*
X443708Y351195D02*
X451674Y351195D01*
D10*
X57497Y143861D02*
X57497Y139289D01*
X35653Y139289D02*
X35653Y143861D01*
X38448Y142337D02*
X38475Y142238D01*
X38498Y142137D01*
X38518Y142036D01*
X38534Y141934D01*
X38546Y141832D01*
X38554Y141729D01*
X38558Y141627D01*
X38558Y141523D01*
X38554Y141421D01*
X38546Y141318D01*
X38534Y141216D01*
X38518Y141114D01*
X38498Y141013D01*
X38475Y140912D01*
X38448Y140813D01*
D11*
X35567Y131887D02*
X27601Y123922D01*
X27601Y131887D02*
X35567Y123922D01*
X31584Y123922D02*
X31584Y131887D01*
X35567Y127905D02*
X27601Y127905D01*
D10*
X35653Y318739D02*
X35653Y323311D01*
X57497Y323311D02*
X57497Y318739D01*
X54702Y320263D02*
X54675Y320362D01*
X54652Y320463D01*
X54632Y320564D01*
X54616Y320666D01*
X54604Y320768D01*
X54596Y320871D01*
X54592Y320973D01*
X54592Y321077D01*
X54596Y321179D01*
X54604Y321282D01*
X54616Y321384D01*
X54632Y321486D01*
X54652Y321587D01*
X54675Y321688D01*
X54702Y321787D01*
D11*
X57583Y330713D02*
X65549Y338678D01*
X65549Y330713D02*
X57583Y338678D01*
X61566Y338678D02*
X61566Y330713D01*
X57583Y334695D02*
X65549Y334695D01*
D10*
X324353Y120561D02*
X324353Y115989D01*
X346197Y115989D02*
X346197Y120561D01*
X343402Y119037D02*
X343375Y118938D01*
X343352Y118837D01*
X343332Y118736D01*
X343316Y118634D01*
X343304Y118532D01*
X343296Y118429D01*
X343292Y118327D01*
X343292Y118223D01*
X343296Y118121D01*
X343304Y118018D01*
X343316Y117916D01*
X343332Y117814D01*
X343352Y117713D01*
X343375Y117612D01*
X343402Y117513D01*
D11*
X346283Y127963D02*
X354249Y135928D01*
X354249Y127963D02*
X346283Y135928D01*
X350266Y135928D02*
X350266Y127963D01*
X346283Y131945D02*
X354249Y131945D01*
D10*
X57347Y103411D02*
X57347Y98839D01*
X35503Y98839D02*
X35503Y103411D01*
X38298Y101887D02*
X38325Y101788D01*
X38348Y101687D01*
X38368Y101586D01*
X38384Y101484D01*
X38396Y101382D01*
X38404Y101279D01*
X38408Y101177D01*
X38408Y101073D01*
X38404Y100971D01*
X38396Y100868D01*
X38384Y100766D01*
X38368Y100664D01*
X38348Y100563D01*
X38325Y100462D01*
X38298Y100363D01*
D11*
X35417Y91437D02*
X27451Y83472D01*
X27451Y91437D02*
X35417Y83472D01*
X31434Y83472D02*
X31434Y91437D01*
X35417Y87455D02*
X27451Y87455D01*
D10*
X35653Y273189D02*
X35653Y277761D01*
X57497Y277761D02*
X57497Y273189D01*
X54702Y274713D02*
X54675Y274812D01*
X54652Y274913D01*
X54632Y275014D01*
X54616Y275116D01*
X54604Y275218D01*
X54596Y275321D01*
X54592Y275423D01*
X54592Y275527D01*
X54596Y275629D01*
X54604Y275732D01*
X54616Y275834D01*
X54632Y275936D01*
X54652Y276037D01*
X54675Y276138D01*
X54702Y276237D01*
D11*
X57583Y285163D02*
X65549Y293128D01*
X65549Y285163D02*
X57583Y293128D01*
X61566Y293128D02*
X61566Y285163D01*
X57583Y289145D02*
X65549Y289145D01*
D16*
X362325Y124025D03*
D11*
X390425Y81379D02*
X392882Y78922D01*
X390425Y81379D02*
X397797Y81379D01*
X397797Y78922D02*
X397797Y83837D01*
D14*
X404825Y75025D02*
X404825Y173525D01*
X404825Y75025D02*
X359825Y75025D01*
X359825Y173525D01*
X404825Y173525D01*
D16*
X362325Y124025D03*
D11*
X390425Y81379D02*
X392882Y78922D01*
X390425Y81379D02*
X397797Y81379D01*
X397797Y78922D02*
X397797Y83837D01*
D16*
X413125Y124025D03*
D11*
X441225Y81379D02*
X443682Y78922D01*
X441225Y81379D02*
X448597Y81379D01*
X448597Y78922D02*
X448597Y83837D01*
D14*
X455625Y75025D02*
X455625Y173525D01*
X455625Y75025D02*
X410625Y75025D01*
X410625Y173525D01*
X455625Y173525D01*
D16*
X413125Y124025D03*
D11*
X441225Y81379D02*
X443682Y78922D01*
X441225Y81379D02*
X448597Y81379D01*
X448597Y78922D02*
X448597Y83837D01*
D17*
X402656Y84755D02*
X401724Y83823D01*
X401724Y81959D01*
X402656Y81027D01*
X406385Y81027D01*
X407317Y81959D01*
X407317Y83823D01*
X406385Y84755D01*
X407317Y86640D02*
X401724Y86640D01*
X407317Y90368D01*
X401724Y90368D01*
X407317Y92253D02*
X407317Y95981D01*
X407317Y92253D02*
X403589Y95981D01*
X402656Y95981D01*
X401724Y95049D01*
X401724Y93185D01*
X402656Y92253D01*
X401724Y97866D02*
X401724Y101594D01*
X401724Y97866D02*
X404521Y97866D01*
X403589Y99730D01*
X403589Y100662D01*
X404521Y101594D01*
X406385Y101594D01*
X407317Y100662D01*
X407317Y98798D01*
X406385Y97866D01*
X402656Y84755D02*
X401724Y83823D01*
X401724Y81959D01*
X402656Y81027D01*
X406385Y81027D01*
X407317Y81959D01*
X407317Y83823D01*
X406385Y84755D01*
X407317Y86640D02*
X401724Y86640D01*
X407317Y90368D01*
X401724Y90368D01*
X407317Y92253D02*
X407317Y95981D01*
X407317Y92253D02*
X403589Y95981D01*
X402656Y95981D01*
X401724Y95049D01*
X401724Y93185D01*
X402656Y92253D01*
X401724Y97866D02*
X401724Y101594D01*
X401724Y97866D02*
X404521Y97866D01*
X403589Y99730D01*
X403589Y100662D01*
X404521Y101594D01*
X406385Y101594D01*
X407317Y100662D01*
X407317Y98798D01*
X406385Y97866D01*
D16*
X463925Y124025D03*
D11*
X492025Y81379D02*
X494482Y78922D01*
X492025Y81379D02*
X499397Y81379D01*
X499397Y78922D02*
X499397Y83837D01*
D14*
X506425Y75025D02*
X506425Y173525D01*
X506425Y75025D02*
X461425Y75025D01*
X461425Y173525D01*
X506425Y173525D01*
D16*
X463925Y124025D03*
D11*
X492025Y81379D02*
X494482Y78922D01*
X492025Y81379D02*
X499397Y81379D01*
X499397Y78922D02*
X499397Y83837D01*
D17*
X453456Y84755D02*
X452524Y83823D01*
X452524Y81959D01*
X453456Y81027D01*
X457185Y81027D01*
X458117Y81959D01*
X458117Y83823D01*
X457185Y84755D01*
X458117Y86640D02*
X452524Y86640D01*
X458117Y90368D01*
X452524Y90368D01*
X458117Y92253D02*
X458117Y95981D01*
X458117Y92253D02*
X454389Y95981D01*
X453456Y95981D01*
X452524Y95049D01*
X452524Y93185D01*
X453456Y92253D01*
X453456Y99730D02*
X452524Y101594D01*
X453456Y99730D02*
X455321Y97866D01*
X457185Y97866D01*
X458117Y98798D01*
X458117Y100662D01*
X457185Y101594D01*
X456253Y101594D01*
X455321Y100662D01*
X455321Y97866D01*
X453456Y84755D02*
X452524Y83823D01*
X452524Y81959D01*
X453456Y81027D01*
X457185Y81027D01*
X458117Y81959D01*
X458117Y83823D01*
X457185Y84755D01*
X458117Y86640D02*
X452524Y86640D01*
X458117Y90368D01*
X452524Y90368D01*
X458117Y92253D02*
X458117Y95981D01*
X458117Y92253D02*
X454389Y95981D01*
X453456Y95981D01*
X452524Y95049D01*
X452524Y93185D01*
X453456Y92253D01*
X453456Y99730D02*
X452524Y101594D01*
X453456Y99730D02*
X455321Y97866D01*
X457185Y97866D01*
X458117Y98798D01*
X458117Y100662D01*
X457185Y101594D01*
X456253Y101594D01*
X455321Y100662D01*
X455321Y97866D01*
D16*
X514725Y124025D03*
D11*
X542825Y81379D02*
X545282Y78922D01*
X542825Y81379D02*
X550197Y81379D01*
X550197Y78922D02*
X550197Y83837D01*
D14*
X557225Y75025D02*
X557225Y173525D01*
X557225Y75025D02*
X512225Y75025D01*
X512225Y173525D01*
X557225Y173525D01*
D16*
X514725Y124025D03*
D11*
X542825Y81379D02*
X545282Y78922D01*
X542825Y81379D02*
X550197Y81379D01*
X550197Y78922D02*
X550197Y83837D01*
D17*
X504256Y84755D02*
X503324Y83823D01*
X503324Y81959D01*
X504256Y81027D01*
X507985Y81027D01*
X508917Y81959D01*
X508917Y83823D01*
X507985Y84755D01*
X508917Y86640D02*
X503324Y86640D01*
X508917Y90368D01*
X503324Y90368D01*
X508917Y92253D02*
X508917Y95981D01*
X508917Y92253D02*
X505189Y95981D01*
X504256Y95981D01*
X503324Y95049D01*
X503324Y93185D01*
X504256Y92253D01*
X503324Y97866D02*
X503324Y101594D01*
X504256Y101594D01*
X507985Y97866D01*
X508917Y97866D01*
X504256Y84755D02*
X503324Y83823D01*
X503324Y81959D01*
X504256Y81027D01*
X507985Y81027D01*
X508917Y81959D01*
X508917Y83823D01*
X507985Y84755D01*
X508917Y86640D02*
X503324Y86640D01*
X508917Y90368D01*
X503324Y90368D01*
X508917Y92253D02*
X508917Y95981D01*
X508917Y92253D02*
X505189Y95981D01*
X504256Y95981D01*
X503324Y95049D01*
X503324Y93185D01*
X504256Y92253D01*
X503324Y97866D02*
X503324Y101594D01*
X504256Y101594D01*
X507985Y97866D01*
X508917Y97866D01*
D16*
X565525Y124025D03*
D11*
X593625Y81379D02*
X596082Y78922D01*
X593625Y81379D02*
X600997Y81379D01*
X600997Y78922D02*
X600997Y83837D01*
D14*
X608025Y75025D02*
X608025Y173525D01*
X608025Y75025D02*
X563025Y75025D01*
X563025Y173525D01*
X608025Y173525D01*
D16*
X565525Y124025D03*
D11*
X593625Y81379D02*
X596082Y78922D01*
X593625Y81379D02*
X600997Y81379D01*
X600997Y78922D02*
X600997Y83837D01*
D17*
X555056Y84755D02*
X554124Y83823D01*
X554124Y81959D01*
X555056Y81027D01*
X558785Y81027D01*
X559717Y81959D01*
X559717Y83823D01*
X558785Y84755D01*
X559717Y86640D02*
X554124Y86640D01*
X559717Y90368D01*
X554124Y90368D01*
X559717Y92253D02*
X559717Y95981D01*
X559717Y92253D02*
X555989Y95981D01*
X555056Y95981D01*
X554124Y95049D01*
X554124Y93185D01*
X555056Y92253D01*
X555056Y97866D02*
X554124Y98798D01*
X554124Y100662D01*
X555056Y101594D01*
X555989Y101594D01*
X556921Y100662D01*
X557853Y101594D01*
X558785Y101594D01*
X559717Y100662D01*
X559717Y98798D01*
X558785Y97866D01*
X557853Y97866D01*
X556921Y98798D01*
X555989Y97866D01*
X555056Y97866D01*
X556921Y98798D02*
X556921Y100662D01*
X555056Y84755D02*
X554124Y83823D01*
X554124Y81959D01*
X555056Y81027D01*
X558785Y81027D01*
X559717Y81959D01*
X559717Y83823D01*
X558785Y84755D01*
X559717Y86640D02*
X554124Y86640D01*
X559717Y90368D01*
X554124Y90368D01*
X559717Y92253D02*
X559717Y95981D01*
X559717Y92253D02*
X555989Y95981D01*
X555056Y95981D01*
X554124Y95049D01*
X554124Y93185D01*
X555056Y92253D01*
X555056Y97866D02*
X554124Y98798D01*
X554124Y100662D01*
X555056Y101594D01*
X555989Y101594D01*
X556921Y100662D01*
X557853Y101594D01*
X558785Y101594D01*
X559717Y100662D01*
X559717Y98798D01*
X558785Y97866D01*
X557853Y97866D01*
X556921Y98798D01*
X555989Y97866D01*
X555056Y97866D01*
X556921Y98798D02*
X556921Y100662D01*
D16*
X616325Y124025D03*
D11*
X644425Y81379D02*
X646882Y78922D01*
X644425Y81379D02*
X651797Y81379D01*
X651797Y78922D02*
X651797Y83837D01*
D14*
X658825Y75025D02*
X658825Y173525D01*
X658825Y75025D02*
X613825Y75025D01*
X613825Y173525D01*
X658825Y173525D01*
D16*
X616325Y124025D03*
D11*
X644425Y81379D02*
X646882Y78922D01*
X644425Y81379D02*
X651797Y81379D01*
X651797Y78922D02*
X651797Y83837D01*
D17*
X605856Y84755D02*
X604924Y83823D01*
X604924Y81959D01*
X605856Y81027D01*
X609585Y81027D01*
X610517Y81959D01*
X610517Y83823D01*
X609585Y84755D01*
X610517Y86640D02*
X604924Y86640D01*
X610517Y90368D01*
X604924Y90368D01*
X610517Y92253D02*
X610517Y95981D01*
X610517Y92253D02*
X606789Y95981D01*
X605856Y95981D01*
X604924Y95049D01*
X604924Y93185D01*
X605856Y92253D01*
X609585Y97866D02*
X610517Y98798D01*
X610517Y100662D01*
X609585Y101594D01*
X605856Y101594D01*
X604924Y100662D01*
X604924Y98798D01*
X605856Y97866D01*
X606789Y97866D01*
X607721Y98798D01*
X607721Y101594D01*
X605856Y84755D02*
X604924Y83823D01*
X604924Y81959D01*
X605856Y81027D01*
X609585Y81027D01*
X610517Y81959D01*
X610517Y83823D01*
X609585Y84755D01*
X610517Y86640D02*
X604924Y86640D01*
X610517Y90368D01*
X604924Y90368D01*
X610517Y92253D02*
X610517Y95981D01*
X610517Y92253D02*
X606789Y95981D01*
X605856Y95981D01*
X604924Y95049D01*
X604924Y93185D01*
X605856Y92253D01*
X609585Y97866D02*
X610517Y98798D01*
X610517Y100662D01*
X609585Y101594D01*
X605856Y101594D01*
X604924Y100662D01*
X604924Y98798D01*
X605856Y97866D01*
X606789Y97866D01*
X607721Y98798D01*
X607721Y101594D01*
D16*
X667125Y124025D03*
D11*
X695225Y81379D02*
X697682Y78922D01*
X695225Y81379D02*
X702597Y81379D01*
X702597Y78922D02*
X702597Y83837D01*
D14*
X709625Y75025D02*
X709625Y173525D01*
X709625Y75025D02*
X664625Y75025D01*
X664625Y173525D01*
X709625Y173525D01*
D16*
X667125Y124025D03*
D11*
X695225Y81379D02*
X697682Y78922D01*
X695225Y81379D02*
X702597Y81379D01*
X702597Y78922D02*
X702597Y83837D01*
D17*
X656656Y84755D02*
X655724Y83823D01*
X655724Y81959D01*
X656656Y81027D01*
X660385Y81027D01*
X661317Y81959D01*
X661317Y83823D01*
X660385Y84755D01*
X661317Y86640D02*
X655724Y86640D01*
X661317Y90368D01*
X655724Y90368D01*
X656656Y92253D02*
X655724Y93185D01*
X655724Y95049D01*
X656656Y95981D01*
X657589Y95981D01*
X658521Y95049D01*
X658521Y94117D01*
X658521Y95049D02*
X659453Y95981D01*
X660385Y95981D01*
X661317Y95049D01*
X661317Y93185D01*
X660385Y92253D01*
X660385Y97866D02*
X656656Y97866D01*
X655724Y98798D01*
X655724Y100662D01*
X656656Y101594D01*
X660385Y101594D01*
X661317Y100662D01*
X661317Y98798D01*
X660385Y97866D01*
X656656Y101594D01*
X656656Y84755D02*
X655724Y83823D01*
X655724Y81959D01*
X656656Y81027D01*
X660385Y81027D01*
X661317Y81959D01*
X661317Y83823D01*
X660385Y84755D01*
X661317Y86640D02*
X655724Y86640D01*
X661317Y90368D01*
X655724Y90368D01*
X656656Y92253D02*
X655724Y93185D01*
X655724Y95049D01*
X656656Y95981D01*
X657589Y95981D01*
X658521Y95049D01*
X658521Y94117D01*
X658521Y95049D02*
X659453Y95981D01*
X660385Y95981D01*
X661317Y95049D01*
X661317Y93185D01*
X660385Y92253D01*
X660385Y97866D02*
X656656Y97866D01*
X655724Y98798D01*
X655724Y100662D01*
X656656Y101594D01*
X660385Y101594D01*
X661317Y100662D01*
X661317Y98798D01*
X660385Y97866D01*
X656656Y101594D01*
D16*
X717925Y124025D03*
D11*
X746025Y81379D02*
X748482Y78922D01*
X746025Y81379D02*
X753397Y81379D01*
X753397Y78922D02*
X753397Y83837D01*
D14*
X760425Y75025D02*
X760425Y173525D01*
X760425Y75025D02*
X715425Y75025D01*
X715425Y173525D01*
X760425Y173525D01*
D16*
X717925Y124025D03*
D11*
X746025Y81379D02*
X748482Y78922D01*
X746025Y81379D02*
X753397Y81379D01*
X753397Y78922D02*
X753397Y83837D01*
D17*
X707456Y84755D02*
X706524Y83823D01*
X706524Y81959D01*
X707456Y81027D01*
X711185Y81027D01*
X712117Y81959D01*
X712117Y83823D01*
X711185Y84755D01*
X712117Y86640D02*
X706524Y86640D01*
X712117Y90368D01*
X706524Y90368D01*
X707456Y92253D02*
X706524Y93185D01*
X706524Y95049D01*
X707456Y95981D01*
X708389Y95981D01*
X709321Y95049D01*
X709321Y94117D01*
X709321Y95049D02*
X710253Y95981D01*
X711185Y95981D01*
X712117Y95049D01*
X712117Y93185D01*
X711185Y92253D01*
X708389Y97866D02*
X706524Y99730D01*
X712117Y99730D01*
X712117Y97866D02*
X712117Y101594D01*
X707456Y84755D02*
X706524Y83823D01*
X706524Y81959D01*
X707456Y81027D01*
X711185Y81027D01*
X712117Y81959D01*
X712117Y83823D01*
X711185Y84755D01*
X712117Y86640D02*
X706524Y86640D01*
X712117Y90368D01*
X706524Y90368D01*
X707456Y92253D02*
X706524Y93185D01*
X706524Y95049D01*
X707456Y95981D01*
X708389Y95981D01*
X709321Y95049D01*
X709321Y94117D01*
X709321Y95049D02*
X710253Y95981D01*
X711185Y95981D01*
X712117Y95049D01*
X712117Y93185D01*
X711185Y92253D01*
X708389Y97866D02*
X706524Y99730D01*
X712117Y99730D01*
X712117Y97866D02*
X712117Y101594D01*
M02*
