G04 EAGLE Gerber RS-274X export*
G75*
%MOMM*%
%FSLAX34Y34*%
%LPD*%
%INSoldermask Top*%
%IPPOS*%
%AMOC8*
5,1,8,0,0,1.08239X$1,22.5*%
G01*
%ADD10R,0.701600X2.301600*%
%ADD11R,1.401600X1.601600*%
%ADD12R,1.601600X1.401600*%
%ADD13R,0.457200X1.219200*%
%ADD14C,2.601600*%
%ADD15C,1.524000*%
%ADD16R,1.524000X1.524000*%


D10*
X552450Y265675D03*
X565150Y265675D03*
X577850Y265675D03*
X590550Y265675D03*
X603250Y265675D03*
X615950Y265675D03*
X628650Y265675D03*
X641350Y265675D03*
X654050Y265675D03*
X666750Y265675D03*
X679450Y265675D03*
X692150Y265675D03*
X704850Y265675D03*
X717550Y265675D03*
X717550Y375675D03*
X704850Y375675D03*
X692150Y375675D03*
X679450Y375675D03*
X666750Y375675D03*
X654050Y375675D03*
X641350Y375675D03*
X628650Y375675D03*
X615950Y375675D03*
X603250Y375675D03*
X590550Y375675D03*
X577850Y375675D03*
X565150Y375675D03*
X552450Y375675D03*
D11*
X467750Y196850D03*
X484750Y196850D03*
X467750Y222250D03*
X484750Y222250D03*
X467750Y247650D03*
X484750Y247650D03*
D12*
X469900Y374625D03*
X469900Y355625D03*
X501650Y374625D03*
X501650Y355625D03*
X527050Y330175D03*
X527050Y311175D03*
D13*
X437479Y295302D03*
X430875Y295302D03*
X424271Y295302D03*
X424271Y275998D03*
X430875Y275998D03*
X437479Y275998D03*
D12*
X711200Y226450D03*
X711200Y243450D03*
X698500Y202175D03*
X698500Y185175D03*
X685800Y226450D03*
X685800Y243450D03*
X673100Y202175D03*
X673100Y185175D03*
D13*
X342529Y226427D03*
X335925Y226427D03*
X329321Y226427D03*
X329321Y207123D03*
X335925Y207123D03*
X342529Y207123D03*
D14*
X750000Y30000D03*
X750000Y450000D03*
X30000Y30000D03*
X30000Y450000D03*
D15*
X544550Y435450D03*
X524550Y435450D03*
X504550Y435450D03*
D16*
X484550Y435450D03*
D15*
X652500Y435450D03*
X632500Y435450D03*
X612500Y435450D03*
D16*
X592500Y435450D03*
D15*
X81875Y117950D03*
X101875Y117950D03*
D16*
X121875Y117950D03*
D15*
X170775Y117950D03*
X190775Y117950D03*
D16*
X210775Y117950D03*
D15*
X259675Y117950D03*
X279675Y117950D03*
D16*
X299675Y117950D03*
D15*
X81875Y168750D03*
X101875Y168750D03*
D16*
X121875Y168750D03*
D15*
X170775Y168750D03*
X190775Y168750D03*
D16*
X210775Y168750D03*
D15*
X259675Y168750D03*
X279675Y168750D03*
D16*
X299675Y168750D03*
D15*
X81875Y219550D03*
X101875Y219550D03*
D16*
X121875Y219550D03*
D15*
X170775Y219550D03*
X190775Y219550D03*
D16*
X210775Y219550D03*
D15*
X259675Y219550D03*
X279675Y219550D03*
D16*
X299675Y219550D03*
D15*
X81875Y270350D03*
X101875Y270350D03*
D16*
X121875Y270350D03*
D15*
X170775Y270350D03*
X190775Y270350D03*
D16*
X210775Y270350D03*
D15*
X259675Y270350D03*
X279675Y270350D03*
D16*
X299675Y270350D03*
D15*
X81875Y321150D03*
X101875Y321150D03*
D16*
X121875Y321150D03*
D15*
X170775Y321150D03*
X190775Y321150D03*
D16*
X210775Y321150D03*
D15*
X259675Y321150D03*
X279675Y321150D03*
D16*
X299675Y321150D03*
D15*
X81875Y371950D03*
X101875Y371950D03*
D16*
X121875Y371950D03*
D15*
X170775Y371950D03*
X190775Y371950D03*
D16*
X210775Y371950D03*
D15*
X259675Y371950D03*
X279675Y371950D03*
D16*
X299675Y371950D03*
D12*
X660400Y226450D03*
X660400Y243450D03*
D15*
X351750Y371950D03*
X371750Y371950D03*
D16*
X391750Y371950D03*
D15*
X351750Y270350D03*
X371750Y270350D03*
D16*
X391750Y270350D03*
D15*
X351750Y321150D03*
X371750Y321150D03*
D16*
X391750Y321150D03*
D13*
X39971Y213023D03*
X46575Y213023D03*
X53179Y213023D03*
X53179Y232327D03*
X46575Y232327D03*
X39971Y232327D03*
X55679Y381777D03*
X49075Y381777D03*
X42471Y381777D03*
X42471Y362473D03*
X49075Y362473D03*
X55679Y362473D03*
X328121Y167623D03*
X334725Y167623D03*
X341329Y167623D03*
X341329Y186927D03*
X334725Y186927D03*
X328121Y186927D03*
X439304Y347177D03*
X432700Y347177D03*
X426096Y347177D03*
X426096Y327873D03*
X432700Y327873D03*
X439304Y327873D03*
X39971Y131923D03*
X46575Y131923D03*
X53179Y131923D03*
X53179Y151227D03*
X46575Y151227D03*
X39971Y151227D03*
X53179Y330677D03*
X46575Y330677D03*
X39971Y330677D03*
X39971Y311373D03*
X46575Y311373D03*
X53179Y311373D03*
X341879Y127927D03*
X335275Y127927D03*
X328671Y127927D03*
X328671Y108623D03*
X335275Y108623D03*
X341879Y108623D03*
X39821Y91473D03*
X46425Y91473D03*
X53029Y91473D03*
X53029Y110777D03*
X46425Y110777D03*
X39821Y110777D03*
X53179Y285127D03*
X46575Y285127D03*
X39971Y285127D03*
X39971Y265823D03*
X46575Y265823D03*
X53179Y265823D03*
D15*
X381475Y154025D03*
X381475Y134025D03*
X381475Y114025D03*
D16*
X381475Y94025D03*
D15*
X432275Y154025D03*
X432275Y134025D03*
X432275Y114025D03*
D16*
X432275Y94025D03*
D15*
X483075Y154025D03*
X483075Y134025D03*
X483075Y114025D03*
D16*
X483075Y94025D03*
D15*
X533875Y154025D03*
X533875Y134025D03*
X533875Y114025D03*
D16*
X533875Y94025D03*
D15*
X584675Y154025D03*
X584675Y134025D03*
X584675Y114025D03*
D16*
X584675Y94025D03*
D15*
X635475Y154025D03*
X635475Y134025D03*
X635475Y114025D03*
D16*
X635475Y94025D03*
D15*
X686275Y154025D03*
X686275Y134025D03*
X686275Y114025D03*
D16*
X686275Y94025D03*
D15*
X737075Y154025D03*
X737075Y134025D03*
X737075Y114025D03*
D16*
X737075Y94025D03*
M02*
