G04 EAGLE Gerber RS-274X export*
G75*
%MOMM*%
%FSLAX34Y34*%
%LPD*%
%INSoldermask Bottom*%
%IPPOS*%
%AMOC8*
5,1,8,0,0,1.08239X$1,22.5*%
G01*
%ADD10R,1.270000X1.701800*%
%ADD11R,0.152400X1.828800*%
%ADD12R,1.601600X1.401600*%
%ADD13R,1.601600X1.601600*%
%ADD14C,2.601600*%
%ADD15C,1.524000*%
%ADD16R,1.524000X1.524000*%


D10*
X430530Y196850D03*
X445770Y196850D03*
D11*
X438150Y196850D03*
D10*
X430530Y222250D03*
X445770Y222250D03*
D11*
X438150Y222250D03*
D10*
X430530Y247650D03*
X445770Y247650D03*
D11*
X438150Y247650D03*
D12*
X593725Y334400D03*
X593725Y351400D03*
X606425Y289950D03*
X606425Y306950D03*
X619125Y334400D03*
X619125Y351400D03*
X631825Y289950D03*
X631825Y306950D03*
X644525Y334400D03*
X644525Y351400D03*
X657225Y289950D03*
X657225Y306950D03*
X669925Y334400D03*
X669925Y351400D03*
X682625Y289950D03*
X682625Y306950D03*
D13*
X639800Y200025D03*
X604800Y200025D03*
D14*
X750000Y30000D03*
X750000Y450000D03*
X30000Y30000D03*
X30000Y450000D03*
D15*
X544550Y435450D03*
X524550Y435450D03*
X504550Y435450D03*
D16*
X484550Y435450D03*
D15*
X652500Y435450D03*
X632500Y435450D03*
X612500Y435450D03*
D16*
X592500Y435450D03*
D15*
X81875Y117950D03*
X101875Y117950D03*
D16*
X121875Y117950D03*
D15*
X170775Y117950D03*
X190775Y117950D03*
D16*
X210775Y117950D03*
D15*
X259675Y117950D03*
X279675Y117950D03*
D16*
X299675Y117950D03*
D15*
X81875Y168750D03*
X101875Y168750D03*
D16*
X121875Y168750D03*
D15*
X170775Y168750D03*
X190775Y168750D03*
D16*
X210775Y168750D03*
D15*
X259675Y168750D03*
X279675Y168750D03*
D16*
X299675Y168750D03*
D15*
X81875Y219550D03*
X101875Y219550D03*
D16*
X121875Y219550D03*
D15*
X170775Y219550D03*
X190775Y219550D03*
D16*
X210775Y219550D03*
D15*
X259675Y219550D03*
X279675Y219550D03*
D16*
X299675Y219550D03*
D15*
X81875Y270350D03*
X101875Y270350D03*
D16*
X121875Y270350D03*
D15*
X170775Y270350D03*
X190775Y270350D03*
D16*
X210775Y270350D03*
D15*
X259675Y270350D03*
X279675Y270350D03*
D16*
X299675Y270350D03*
D15*
X81875Y321150D03*
X101875Y321150D03*
D16*
X121875Y321150D03*
D15*
X170775Y321150D03*
X190775Y321150D03*
D16*
X210775Y321150D03*
D15*
X259675Y321150D03*
X279675Y321150D03*
D16*
X299675Y321150D03*
D15*
X81875Y371950D03*
X101875Y371950D03*
D16*
X121875Y371950D03*
D15*
X170775Y371950D03*
X190775Y371950D03*
D16*
X210775Y371950D03*
D15*
X259675Y371950D03*
X279675Y371950D03*
D16*
X299675Y371950D03*
D15*
X351750Y371950D03*
X371750Y371950D03*
D16*
X391750Y371950D03*
D15*
X351750Y270350D03*
X371750Y270350D03*
D16*
X391750Y270350D03*
D15*
X351750Y321150D03*
X371750Y321150D03*
D16*
X391750Y321150D03*
D15*
X381475Y154025D03*
X381475Y134025D03*
X381475Y114025D03*
D16*
X381475Y94025D03*
D15*
X432275Y154025D03*
X432275Y134025D03*
X432275Y114025D03*
D16*
X432275Y94025D03*
D15*
X483075Y154025D03*
X483075Y134025D03*
X483075Y114025D03*
D16*
X483075Y94025D03*
D15*
X533875Y154025D03*
X533875Y134025D03*
X533875Y114025D03*
D16*
X533875Y94025D03*
D15*
X584675Y154025D03*
X584675Y134025D03*
X584675Y114025D03*
D16*
X584675Y94025D03*
D15*
X635475Y154025D03*
X635475Y134025D03*
X635475Y114025D03*
D16*
X635475Y94025D03*
D15*
X686275Y154025D03*
X686275Y134025D03*
X686275Y114025D03*
D16*
X686275Y94025D03*
D15*
X737075Y154025D03*
X737075Y134025D03*
X737075Y114025D03*
D16*
X737075Y94025D03*
M02*
