G04 EAGLE Gerber RS-274X export*
G75*
%MOMM*%
%FSLAX34Y34*%
%LPD*%
%INSolderpaste Top*%
%IPPOS*%
%AMOC8*
5,1,8,0,0,1.08239X$1,22.5*%
G01*
%ADD10R,0.600000X2.200000*%
%ADD11R,1.300000X1.500000*%
%ADD12R,1.500000X1.300000*%
%ADD13R,0.355600X1.117600*%


D10*
X552450Y265675D03*
X565150Y265675D03*
X577850Y265675D03*
X590550Y265675D03*
X603250Y265675D03*
X615950Y265675D03*
X628650Y265675D03*
X641350Y265675D03*
X654050Y265675D03*
X666750Y265675D03*
X679450Y265675D03*
X692150Y265675D03*
X704850Y265675D03*
X717550Y265675D03*
X717550Y375675D03*
X704850Y375675D03*
X692150Y375675D03*
X679450Y375675D03*
X666750Y375675D03*
X654050Y375675D03*
X641350Y375675D03*
X628650Y375675D03*
X615950Y375675D03*
X603250Y375675D03*
X590550Y375675D03*
X577850Y375675D03*
X565150Y375675D03*
X552450Y375675D03*
D11*
X467750Y196850D03*
X484750Y196850D03*
X467750Y222250D03*
X484750Y222250D03*
X467750Y247650D03*
X484750Y247650D03*
D12*
X469900Y374625D03*
X469900Y355625D03*
X501650Y374625D03*
X501650Y355625D03*
X527050Y330175D03*
X527050Y311175D03*
D13*
X437479Y295302D03*
X430875Y295302D03*
X424271Y295302D03*
X424271Y275998D03*
X430875Y275998D03*
X437479Y275998D03*
D12*
X711200Y226450D03*
X711200Y243450D03*
X698500Y202175D03*
X698500Y185175D03*
X685800Y226450D03*
X685800Y243450D03*
X673100Y202175D03*
X673100Y185175D03*
D13*
X342529Y226427D03*
X335925Y226427D03*
X329321Y226427D03*
X329321Y207123D03*
X335925Y207123D03*
X342529Y207123D03*
D12*
X660400Y226450D03*
X660400Y243450D03*
D13*
X39971Y213023D03*
X46575Y213023D03*
X53179Y213023D03*
X53179Y232327D03*
X46575Y232327D03*
X39971Y232327D03*
X55679Y381777D03*
X49075Y381777D03*
X42471Y381777D03*
X42471Y362473D03*
X49075Y362473D03*
X55679Y362473D03*
X328121Y167623D03*
X334725Y167623D03*
X341329Y167623D03*
X341329Y186927D03*
X334725Y186927D03*
X328121Y186927D03*
X439304Y347177D03*
X432700Y347177D03*
X426096Y347177D03*
X426096Y327873D03*
X432700Y327873D03*
X439304Y327873D03*
X39971Y131923D03*
X46575Y131923D03*
X53179Y131923D03*
X53179Y151227D03*
X46575Y151227D03*
X39971Y151227D03*
X53179Y330677D03*
X46575Y330677D03*
X39971Y330677D03*
X39971Y311373D03*
X46575Y311373D03*
X53179Y311373D03*
X341879Y127927D03*
X335275Y127927D03*
X328671Y127927D03*
X328671Y108623D03*
X335275Y108623D03*
X341879Y108623D03*
X39821Y91473D03*
X46425Y91473D03*
X53029Y91473D03*
X53029Y110777D03*
X46425Y110777D03*
X39821Y110777D03*
X53179Y285127D03*
X46575Y285127D03*
X39971Y285127D03*
X39971Y265823D03*
X46575Y265823D03*
X53179Y265823D03*
M02*
