M48
;GenerationSoftware,Autodesk,EAGLE,9.2.2*%
;CreationDate,2020-12-03T19:27:39Z*%
FMAT,2
ICI,OFF
METRIC,TZ,000.000
T3C0.305
T2C0.800
T1C2.500
%
G90
M71
T1
X3000Y45000
X75000Y3000
X75000Y45000
X3000Y3000
T2
X61250Y43545
X59250Y43545
X8187Y11795
X10188Y11795
X12187Y11795
X17078Y11795
X19078Y11795
X21078Y11795
X25967Y11795
X27967Y11795
X29967Y11795
X8187Y16875
X10188Y16875
X12187Y16875
X17078Y16875
X19078Y16875
X21078Y16875
X25967Y16875
X27967Y16875
X29967Y16875
X10188Y21955
X12187Y21955
X17078Y21955
X19078Y21955
X21078Y21955
X8187Y21955
X25967Y21955
X27967Y21955
X29967Y21955
X8187Y27035
X10188Y27035
X12187Y27035
X17078Y27035
X19078Y27035
X21078Y27035
X25967Y27035
X27967Y27035
X29967Y27035
X8187Y32115
X10188Y32115
X12187Y32115
X17078Y32115
X19078Y32115
X21078Y32115
X25967Y32115
X27967Y32115
X29967Y32115
X8187Y37195
X10188Y37195
X12187Y37195
X17078Y37195
X19078Y37195
X21078Y37195
X25967Y37195
X27967Y37195
X29967Y37195
X35175Y37195
X37175Y37195
X39175Y37195
X35175Y27035
X37175Y27035
X39175Y27035
X35175Y32115
X37175Y32115
X39175Y32115
X38148Y15402
X38148Y13402
X38148Y11402
X38148Y9403
X43228Y15402
X43228Y13402
X43228Y9403
X48307Y15402
X48307Y13402
X48307Y11402
X48307Y9403
X53387Y15402
X52455Y43545
X53387Y13402
X53387Y11402
X53387Y9403
X58467Y15402
X58467Y13402
X58467Y11402
X58467Y9403
X63547Y15402
X63547Y13402
X63547Y11402
X63547Y9403
X68628Y15402
X68628Y13402
X68628Y11402
X68628Y9403
X73708Y15402
X73708Y13402
X73708Y11402
X73708Y9403
X54455Y43545
X43228Y11402
X50455Y43545
X48455Y43545
X65250Y43545
X63250Y43545
T3
X57100Y25100
X58500Y28400
X56300Y23200
X57100Y22400
X45000Y23500
X41800Y25100
X45700Y20700
X44100Y23500
X50500Y40200
X63100Y36000
X61900Y30900
X63200Y35200
X64400Y30900
X65700Y35200
X66400Y16100
X67600Y17200
X43300Y7400
X62200Y25100
X58900Y25000
X61800Y20000
X59200Y20100
X73700Y31900
X15300Y38300
X61800Y18100
X59800Y17000
X24000Y14800
X57400Y32100
X16500Y42800
X71200Y39100
X72800Y40700
X14900Y40400
X72900Y33500
X26800Y46300
X24600Y44100
X67000Y30000
X68800Y21500
X25400Y28300
X20700Y23600
X70400Y17000
X12000Y7100
X63400Y25000
X61000Y24400
X62200Y23200
X61000Y22700
X64400Y29800
X16500Y45100
X68600Y18100
X69600Y17000
X33300Y7100
X32300Y8100
X64800Y22700
X41800Y31100
X4200Y29600
X14900Y39000
X7600Y36100
X71700Y28200
X75700Y24200
X63700Y6500
X71800Y30800
X42400Y26500
X70300Y35200
X72300Y35000
X67000Y30900
X72300Y31400
X69100Y32900
X47900Y28400
X49100Y28400
X63600Y21300
X4400Y20200
X6400Y21000
X41200Y30400
X39600Y29300
X56500Y28400
X15300Y25900
X25700Y24000
X4400Y19400
X56500Y29600
X52000Y29700
X31000Y19500
X5000Y24300
X20700Y24400
X7600Y31000
X7600Y34000
X4200Y16200
X6600Y14100
X33500Y9600
X52300Y18100
X49000Y18200
X7800Y9800
X9900Y7700
X5200Y20200
X5400Y12100
X30600Y18800
X30600Y15700
X55600Y42600
X34900Y10200
X6000Y26700
M30